solid OpenSCAD_Model
  facet normal 0.956941 0.290283 0
    outer loop
      vertex 27.9231 41.2804 2.24995
      vertex 27.6955 42.0307 1.00005
      vertex 27.6955 42.0307 2.24995
    endloop
  endfacet
  facet normal 0.956941 0.290283 0
    outer loop
      vertex 27.6955 42.0307 1.00005
      vertex 27.9231 41.2804 2.24995
      vertex 27.9231 41.2804 1.00005
    endloop
  endfacet
  facet normal -0.807155 -0.244847 0.53717
    outer loop
      vertex -26.9564 -41.7246 3.50005
      vertex -27.9231 -41.2804 2.24995
      vertex -27.6955 -42.0307 2.24995
    endloop
  endfacet
  facet normal 0.290283 0.956941 -0
    outer loop
      vertex 25.5307 44.1955 1.00005
      vertex 24.7804 44.4231 2.24995
      vertex 25.5307 44.1955 2.24995
    endloop
  endfacet
  facet normal 0.290283 0.956941 0
    outer loop
      vertex 24.7804 44.4231 2.24995
      vertex 25.5307 44.1955 1.00005
      vertex 24.7804 44.4231 1.00005
    endloop
  endfacet
  facet normal -0.839406 -0.0826902 0.537177
    outer loop
      vertex -27.2 -40.5 3.50005
      vertex -28 -40.5 2.24995
      vertex -27.1385 -41.1243 3.50005
    endloop
  endfacet
  facet normal 0.244847 0.807155 0.53717
    outer loop
      vertex 25.5307 44.1955 2.24995
      vertex 24.7804 44.4231 2.24995
      vertex 25.2246 43.4564 3.50005
    endloop
  endfacet
  facet normal -0.772956 -0.634459 0
    outer loop
      vertex -26.8284 -43.3284 1.00005
      vertex -27.3259 -42.7223 2.24995
      vertex -27.3259 -42.7223 1.00005
    endloop
  endfacet
  facet normal -0.772956 -0.634459 0
    outer loop
      vertex -27.3259 -42.7223 2.24995
      vertex -26.8284 -43.3284 1.00005
      vertex -26.8284 -43.3284 2.24995
    endloop
  endfacet
  facet normal -0.807155 -0.244849 0.537169
    outer loop
      vertex -27.1385 -41.1243 3.50005
      vertex -27.9231 -41.2804 2.24995
      vertex -26.9564 -41.7246 3.50005
    endloop
  endfacet
  facet normal -0.881957 0.471329 0
    outer loop
      vertex -27.6955 42.0307 1.00005
      vertex -27.3259 42.7223 2.24995
      vertex -27.3259 42.7223 1.00005
    endloop
  endfacet
  facet normal -0.881957 0.471329 0
    outer loop
      vertex -27.3259 42.7223 2.24995
      vertex -27.6955 42.0307 1.00005
      vertex -27.6955 42.0307 2.24995
    endloop
  endfacet
  facet normal 0.634459 0.772956 -0
    outer loop
      vertex 26.8284 43.3284 1.00005
      vertex 26.2223 43.8259 2.24995
      vertex 26.8284 43.3284 2.24995
    endloop
  endfacet
  facet normal 0.634459 0.772956 0
    outer loop
      vertex 26.2223 43.8259 2.24995
      vertex 26.8284 43.3284 1.00005
      vertex 26.2223 43.8259 1.00005
    endloop
  endfacet
  facet normal 0.83941 0.0827148 0.537167
    outer loop
      vertex 27.9231 41.2804 2.24995
      vertex 27.1385 41.1243 3.50005
      vertex 28 40.5 2.24995
    endloop
  endfacet
  facet normal 0 1 -0
    outer loop
      vertex 24 44.5 1.00005
      vertex 19.25 44.5 2.24995
      vertex 24 44.5 2.24995
    endloop
  endfacet
  facet normal 0 1 0
    outer loop
      vertex 19.25 44.5 2.24995
      vertex 24 44.5 1.00005
      vertex 19.25 44.5 1.00005
    endloop
  endfacet
  facet normal 0 1 -0
    outer loop
      vertex -19.25 44.5 1.00005
      vertex -24 44.5 2.24995
      vertex -19.25 44.5 2.24995
    endloop
  endfacet
  facet normal 0 1 0
    outer loop
      vertex -24 44.5 2.24995
      vertex -19.25 44.5 1.00005
      vertex -24 44.5 1.00005
    endloop
  endfacet
  facet normal -0.956941 0.290283 0
    outer loop
      vertex -27.9231 41.2804 1.00005
      vertex -27.6955 42.0307 2.24995
      vertex -27.6955 42.0307 1.00005
    endloop
  endfacet
  facet normal -0.956941 0.290283 0
    outer loop
      vertex -27.6955 42.0307 2.24995
      vertex -27.9231 41.2804 1.00005
      vertex -27.9231 41.2804 2.24995
    endloop
  endfacet
  facet normal 0.651955 0.535139 0.537197
    outer loop
      vertex 26.8284 43.3284 2.24995
      vertex 26.6607 42.2778 3.50005
      vertex 27.3259 42.7223 2.24995
    endloop
  endfacet
  facet normal 0.651969 -0.535129 0.53719
    outer loop
      vertex 26.6607 -42.2778 3.50005
      vertex 26.2627 -42.7627 3.50005
      vertex 26.8284 -43.3284 2.24995
    endloop
  endfacet
  facet normal 0.881957 0.471329 0
    outer loop
      vertex 27.6955 42.0307 2.24995
      vertex 27.3259 42.7223 1.00005
      vertex 27.3259 42.7223 2.24995
    endloop
  endfacet
  facet normal 0.881957 0.471329 0
    outer loop
      vertex 27.3259 42.7223 1.00005
      vertex 27.6955 42.0307 2.24995
      vertex 27.6955 42.0307 1.00005
    endloop
  endfacet
  facet normal 0.471329 -0.881957 0
    outer loop
      vertex 25.5307 -44.1955 1.00005
      vertex 26.2223 -43.8259 2.24995
      vertex 25.5307 -44.1955 2.24995
    endloop
  endfacet
  facet normal 0.471329 -0.881957 0
    outer loop
      vertex 26.2223 -43.8259 2.24995
      vertex 25.5307 -44.1955 1.00005
      vertex 26.2223 -43.8259 1.00005
    endloop
  endfacet
  facet normal 0.83941 -0.0827148 0.537167
    outer loop
      vertex 28 -40.5 2.24995
      vertex 27.1385 -41.1243 3.50005
      vertex 27.9231 -41.2804 2.24995
    endloop
  endfacet
  facet normal -0.0826902 -0.839406 0.537177
    outer loop
      vertex -24 -43.7 3.50005
      vertex -24.6243 -43.6385 3.50005
      vertex -24 -44.5 2.24995
    endloop
  endfacet
  facet normal -0.535129 0.651969 0.53719
    outer loop
      vertex -25.7778 43.1607 3.50005
      vertex -26.8284 43.3284 2.24995
      vertex -26.2627 42.7627 3.50005
    endloop
  endfacet
  facet normal -0.743894 0.397547 0.537195
    outer loop
      vertex -27.6955 42.0307 2.24995
      vertex -26.6607 42.2778 3.50005
      vertex -27.3259 42.7223 2.24995
    endloop
  endfacet
  facet normal -0.743876 0.397621 0.537165
    outer loop
      vertex -26.6607 42.2778 3.50005
      vertex -27.6955 42.0307 2.24995
      vertex -26.9564 41.7246 3.50005
    endloop
  endfacet
  facet normal -0.634459 0.772956 0
    outer loop
      vertex -26.2223 43.8259 1.00005
      vertex -26.8284 43.3284 2.24995
      vertex -26.2223 43.8259 2.24995
    endloop
  endfacet
  facet normal -0.634459 0.772956 0
    outer loop
      vertex -26.8284 43.3284 2.24995
      vertex -26.2223 43.8259 1.00005
      vertex -26.8284 43.3284 1.00005
    endloop
  endfacet
  facet normal 0.0827148 -0.83941 0.537167
    outer loop
      vertex 24.6243 -43.6385 3.50005
      vertex 24 -44.5 2.24995
      vertex 24.7804 -44.4231 2.24995
    endloop
  endfacet
  facet normal 0.651955 -0.535139 0.537197
    outer loop
      vertex 27.3259 -42.7223 2.24995
      vertex 26.6607 -42.2778 3.50005
      vertex 26.8284 -43.3284 2.24995
    endloop
  endfacet
  facet normal -0.244849 0.807155 0.537169
    outer loop
      vertex -24.7804 44.4231 2.24995
      vertex -25.2246 43.4564 3.50005
      vertex -24.6243 43.6385 3.50005
    endloop
  endfacet
  facet normal -0.881957 -0.471329 0
    outer loop
      vertex -27.3259 -42.7223 1.00005
      vertex -27.6955 -42.0307 2.24995
      vertex -27.6955 -42.0307 1.00005
    endloop
  endfacet
  facet normal -0.881957 -0.471329 0
    outer loop
      vertex -27.6955 -42.0307 2.24995
      vertex -27.3259 -42.7223 1.00005
      vertex -27.3259 -42.7223 2.24995
    endloop
  endfacet
  facet normal -0.99518 -0.0980643 0
    outer loop
      vertex -27.9231 -41.2804 1.00005
      vertex -28 -40.5 2.24995
      vertex -28 -40.5 1.00005
    endloop
  endfacet
  facet normal -0.99518 -0.0980643 0
    outer loop
      vertex -28 -40.5 2.24995
      vertex -27.9231 -41.2804 1.00005
      vertex -27.9231 -41.2804 2.24995
    endloop
  endfacet
  facet normal -0.244849 -0.807155 0.537169
    outer loop
      vertex -24.6243 -43.6385 3.50005
      vertex -25.2246 -43.4564 3.50005
      vertex -24.7804 -44.4231 2.24995
    endloop
  endfacet
  facet normal 0.634459 -0.772956 0
    outer loop
      vertex 26.2223 -43.8259 1.00005
      vertex 26.8284 -43.3284 2.24995
      vertex 26.2223 -43.8259 2.24995
    endloop
  endfacet
  facet normal 0.634459 -0.772956 0
    outer loop
      vertex 26.8284 -43.3284 2.24995
      vertex 26.2223 -43.8259 1.00005
      vertex 26.8284 -43.3284 1.00005
    endloop
  endfacet
  facet normal 0.99518 0.0980643 0
    outer loop
      vertex 28 40.5 2.24995
      vertex 27.9231 41.2804 1.00005
      vertex 27.9231 41.2804 2.24995
    endloop
  endfacet
  facet normal 0.99518 0.0980643 0
    outer loop
      vertex 27.9231 41.2804 1.00005
      vertex 28 40.5 2.24995
      vertex 28 40.5 1.00005
    endloop
  endfacet
  facet normal 0.839406 -0.0826902 0.537177
    outer loop
      vertex 27.2 -40.5 3.50005
      vertex 27.1385 -41.1243 3.50005
      vertex 28 -40.5 2.24995
    endloop
  endfacet
  facet normal 0.471329 0.881957 -0
    outer loop
      vertex 26.2223 43.8259 1.00005
      vertex 25.5307 44.1955 2.24995
      vertex 26.2223 43.8259 2.24995
    endloop
  endfacet
  facet normal 0.471329 0.881957 0
    outer loop
      vertex 25.5307 44.1955 2.24995
      vertex 26.2223 43.8259 1.00005
      vertex 25.5307 44.1955 1.00005
    endloop
  endfacet
  facet normal -0.0980643 0.99518 0
    outer loop
      vertex -24 44.5 1.00005
      vertex -24.7804 44.4231 2.24995
      vertex -24 44.5 2.24995
    endloop
  endfacet
  facet normal -0.0980643 0.99518 0
    outer loop
      vertex -24.7804 44.4231 2.24995
      vertex -24 44.5 1.00005
      vertex -24.7804 44.4231 1.00005
    endloop
  endfacet
  facet normal -0.99518 0.0980643 0
    outer loop
      vertex -28 40.5 1.00005
      vertex -27.9231 41.2804 2.24995
      vertex -27.9231 41.2804 1.00005
    endloop
  endfacet
  facet normal -0.99518 0.0980643 0
    outer loop
      vertex -27.9231 41.2804 2.24995
      vertex -28 40.5 1.00005
      vertex -28 40.5 2.24995
    endloop
  endfacet
  facet normal 0.535129 0.651969 0.53719
    outer loop
      vertex 26.8284 43.3284 2.24995
      vertex 25.7778 43.1607 3.50005
      vertex 26.2627 42.7627 3.50005
    endloop
  endfacet
  facet normal -0.842291 0 0.539023
    outer loop
      vertex -28 -40.5 2.24995
      vertex -27.2 -35.75 3.50005
      vertex -28 -35.75 2.24995
    endloop
  endfacet
  facet normal -0.842291 0 0.539023
    outer loop
      vertex -27.2 -35.75 3.50005
      vertex -28 -40.5 2.24995
      vertex -27.2 -40.5 3.50005
    endloop
  endfacet
  facet normal -0.842291 0 0.539023
    outer loop
      vertex -28 35.75 2.24995
      vertex -27.2 40.5 3.50005
      vertex -28 40.5 2.24995
    endloop
  endfacet
  facet normal -0.842291 0 0.539023
    outer loop
      vertex -27.2 40.5 3.50005
      vertex -28 35.75 2.24995
      vertex -27.2 35.75 3.50005
    endloop
  endfacet
  facet normal 0.0980643 0.99518 -0
    outer loop
      vertex 24.7804 44.4231 1.00005
      vertex 24 44.5 2.24995
      vertex 24.7804 44.4231 2.24995
    endloop
  endfacet
  facet normal 0.0980643 0.99518 0
    outer loop
      vertex 24 44.5 2.24995
      vertex 24.7804 44.4231 1.00005
      vertex 24 44.5 1.00005
    endloop
  endfacet
  facet normal -0.290283 0.956941 0
    outer loop
      vertex -24.7804 44.4231 1.00005
      vertex -25.5307 44.1955 2.24995
      vertex -24.7804 44.4231 2.24995
    endloop
  endfacet
  facet normal -0.290283 0.956941 0
    outer loop
      vertex -25.5307 44.1955 2.24995
      vertex -24.7804 44.4231 1.00005
      vertex -25.5307 44.1955 1.00005
    endloop
  endfacet
  facet normal 0.807155 0.244847 0.53717
    outer loop
      vertex 27.6955 42.0307 2.24995
      vertex 26.9564 41.7246 3.50005
      vertex 27.9231 41.2804 2.24995
    endloop
  endfacet
  facet normal -1 0 0
    outer loop
      vertex -28 -40.5 1.00005
      vertex -28 -35.75 2.24995
      vertex -28 -35.75 1.00005
    endloop
  endfacet
  facet normal -1 -0 0
    outer loop
      vertex -28 -35.75 2.24995
      vertex -28 -40.5 1.00005
      vertex -28 -40.5 2.24995
    endloop
  endfacet
  facet normal -1 0 0
    outer loop
      vertex -28 35.75 1.00005
      vertex -28 40.5 2.24995
      vertex -28 40.5 1.00005
    endloop
  endfacet
  facet normal -1 -0 0
    outer loop
      vertex -28 40.5 2.24995
      vertex -28 35.75 1.00005
      vertex -28 35.75 2.24995
    endloop
  endfacet
  facet normal -0.956941 -0.290283 0
    outer loop
      vertex -27.6955 -42.0307 1.00005
      vertex -27.9231 -41.2804 2.24995
      vertex -27.9231 -41.2804 1.00005
    endloop
  endfacet
  facet normal -0.956941 -0.290283 0
    outer loop
      vertex -27.9231 -41.2804 2.24995
      vertex -27.6955 -42.0307 1.00005
      vertex -27.6955 -42.0307 2.24995
    endloop
  endfacet
  facet normal 1 -0 0
    outer loop
      vertex 28 -40.5 2.24995
      vertex 28 -35.75 1.00005
      vertex 28 -35.75 2.24995
    endloop
  endfacet
  facet normal 1 0 0
    outer loop
      vertex 28 -35.75 1.00005
      vertex 28 -40.5 2.24995
      vertex 28 -40.5 1.00005
    endloop
  endfacet
  facet normal 1 -0 0
    outer loop
      vertex 28 35.75 2.24995
      vertex 28 40.5 1.00005
      vertex 28 40.5 2.24995
    endloop
  endfacet
  facet normal 1 0 0
    outer loop
      vertex 28 40.5 1.00005
      vertex 28 35.75 2.24995
      vertex 28 35.75 1.00005
    endloop
  endfacet
  facet normal 0.881957 -0.471329 0
    outer loop
      vertex 27.3259 -42.7223 2.24995
      vertex 27.6955 -42.0307 1.00005
      vertex 27.6955 -42.0307 2.24995
    endloop
  endfacet
  facet normal 0.881957 -0.471329 0
    outer loop
      vertex 27.6955 -42.0307 1.00005
      vertex 27.3259 -42.7223 2.24995
      vertex 27.3259 -42.7223 1.00005
    endloop
  endfacet
  facet normal 0.651969 0.535129 0.53719
    outer loop
      vertex 26.8284 43.3284 2.24995
      vertex 26.2627 42.7627 3.50005
      vertex 26.6607 42.2778 3.50005
    endloop
  endfacet
  facet normal 0.956941 -0.290283 0
    outer loop
      vertex 27.6955 -42.0307 2.24995
      vertex 27.9231 -41.2804 1.00005
      vertex 27.9231 -41.2804 2.24995
    endloop
  endfacet
  facet normal 0.956941 -0.290283 0
    outer loop
      vertex 27.9231 -41.2804 1.00005
      vertex 27.6955 -42.0307 2.24995
      vertex 27.6955 -42.0307 1.00005
    endloop
  endfacet
  facet normal 0.0980643 -0.99518 0
    outer loop
      vertex 24 -44.5 1.00005
      vertex 24.7804 -44.4231 2.24995
      vertex 24 -44.5 2.24995
    endloop
  endfacet
  facet normal 0.0980643 -0.99518 0
    outer loop
      vertex 24.7804 -44.4231 2.24995
      vertex 24 -44.5 1.00005
      vertex 24.7804 -44.4231 1.00005
    endloop
  endfacet
  facet normal 0.772956 0.634459 0
    outer loop
      vertex 27.3259 42.7223 2.24995
      vertex 26.8284 43.3284 1.00005
      vertex 26.8284 43.3284 2.24995
    endloop
  endfacet
  facet normal 0.772956 0.634459 0
    outer loop
      vertex 26.8284 43.3284 1.00005
      vertex 27.3259 42.7223 2.24995
      vertex 27.3259 42.7223 1.00005
    endloop
  endfacet
  facet normal -0.0980643 -0.99518 0
    outer loop
      vertex -24.7804 -44.4231 1.00005
      vertex -24 -44.5 2.24995
      vertex -24.7804 -44.4231 2.24995
    endloop
  endfacet
  facet normal -0.0980643 -0.99518 -0
    outer loop
      vertex -24 -44.5 2.24995
      vertex -24.7804 -44.4231 1.00005
      vertex -24 -44.5 1.00005
    endloop
  endfacet
  facet normal -0.772956 0.634459 0
    outer loop
      vertex -27.3259 42.7223 1.00005
      vertex -26.8284 43.3284 2.24995
      vertex -26.8284 43.3284 1.00005
    endloop
  endfacet
  facet normal -0.772956 0.634459 0
    outer loop
      vertex -26.8284 43.3284 2.24995
      vertex -27.3259 42.7223 1.00005
      vertex -27.3259 42.7223 2.24995
    endloop
  endfacet
  facet normal -0.807155 0.244847 0.53717
    outer loop
      vertex -27.6955 42.0307 2.24995
      vertex -27.9231 41.2804 2.24995
      vertex -26.9564 41.7246 3.50005
    endloop
  endfacet
  facet normal 0.807155 0.244849 0.537169
    outer loop
      vertex 27.9231 41.2804 2.24995
      vertex 26.9564 41.7246 3.50005
      vertex 27.1385 41.1243 3.50005
    endloop
  endfacet
  facet normal 0.397547 0.743894 0.537195
    outer loop
      vertex 25.5307 44.1955 2.24995
      vertex 25.7778 43.1607 3.50005
      vertex 26.2223 43.8259 2.24995
    endloop
  endfacet
  facet normal 0.397621 0.743876 0.537165
    outer loop
      vertex 25.7778 43.1607 3.50005
      vertex 25.5307 44.1955 2.24995
      vertex 25.2246 43.4564 3.50005
    endloop
  endfacet
  facet normal -0.471329 0.881957 0
    outer loop
      vertex -25.5307 44.1955 1.00005
      vertex -26.2223 43.8259 2.24995
      vertex -25.5307 44.1955 2.24995
    endloop
  endfacet
  facet normal -0.471329 0.881957 0
    outer loop
      vertex -26.2223 43.8259 2.24995
      vertex -25.5307 44.1955 1.00005
      vertex -26.2223 43.8259 1.00005
    endloop
  endfacet
  facet normal -0.244847 -0.807155 0.53717
    outer loop
      vertex -25.2246 -43.4564 3.50005
      vertex -25.5307 -44.1955 2.24995
      vertex -24.7804 -44.4231 2.24995
    endloop
  endfacet
  facet normal 0.772956 -0.634459 0
    outer loop
      vertex 26.8284 -43.3284 2.24995
      vertex 27.3259 -42.7223 1.00005
      vertex 27.3259 -42.7223 2.24995
    endloop
  endfacet
  facet normal 0.772956 -0.634459 0
    outer loop
      vertex 27.3259 -42.7223 1.00005
      vertex 26.8284 -43.3284 2.24995
      vertex 26.8284 -43.3284 1.00005
    endloop
  endfacet
  facet normal -0.0827148 -0.83941 0.537167
    outer loop
      vertex -24.6243 -43.6385 3.50005
      vertex -24.7804 -44.4231 2.24995
      vertex -24 -44.5 2.24995
    endloop
  endfacet
  facet normal 0.99518 -0.0980643 0
    outer loop
      vertex 27.9231 -41.2804 2.24995
      vertex 28 -40.5 1.00005
      vertex 28 -40.5 2.24995
    endloop
  endfacet
  facet normal 0.99518 -0.0980643 0
    outer loop
      vertex 28 -40.5 1.00005
      vertex 27.9231 -41.2804 2.24995
      vertex 27.9231 -41.2804 1.00005
    endloop
  endfacet
  facet normal 0 -0.842291 0.539023
    outer loop
      vertex -24 -44.5 2.24995
      vertex -19.25 -43.7 3.50005
      vertex -24 -43.7 3.50005
    endloop
  endfacet
  facet normal 0 -0.842291 0.539023
    outer loop
      vertex -19.25 -43.7 3.50005
      vertex -24 -44.5 2.24995
      vertex -19.25 -44.5 2.24995
    endloop
  endfacet
  facet normal 0 -0.842291 0.539023
    outer loop
      vertex 19.25 -44.5 2.24995
      vertex 24 -43.7 3.50005
      vertex 19.25 -43.7 3.50005
    endloop
  endfacet
  facet normal 0 -0.842291 0.539023
    outer loop
      vertex 24 -43.7 3.50005
      vertex 19.25 -44.5 2.24995
      vertex 24 -44.5 2.24995
    endloop
  endfacet
  facet normal -0.290283 -0.956941 0
    outer loop
      vertex -25.5307 -44.1955 1.00005
      vertex -24.7804 -44.4231 2.24995
      vertex -25.5307 -44.1955 2.24995
    endloop
  endfacet
  facet normal -0.290283 -0.956941 -0
    outer loop
      vertex -24.7804 -44.4231 2.24995
      vertex -25.5307 -44.1955 1.00005
      vertex -24.7804 -44.4231 1.00005
    endloop
  endfacet
  facet normal -0.471329 -0.881957 0
    outer loop
      vertex -26.2223 -43.8259 1.00005
      vertex -25.5307 -44.1955 2.24995
      vertex -26.2223 -43.8259 2.24995
    endloop
  endfacet
  facet normal -0.471329 -0.881957 -0
    outer loop
      vertex -25.5307 -44.1955 2.24995
      vertex -26.2223 -43.8259 1.00005
      vertex -25.5307 -44.1955 1.00005
    endloop
  endfacet
  facet normal -0.839406 0.0826902 0.537177
    outer loop
      vertex -27.1385 41.1243 3.50005
      vertex -28 40.5 2.24995
      vertex -27.2 40.5 3.50005
    endloop
  endfacet
  facet normal 0 0 1
    outer loop
      vertex -19.25 -35.75 3.50005
      vertex -24 -43.7 3.50005
      vertex -19.25 -43.7 3.50005
    endloop
  endfacet
  facet normal -0 0 1
    outer loop
      vertex -27.2 -40.5 3.50005
      vertex -24 -43.7 3.50005
      vertex -19.25 -35.75 3.50005
    endloop
  endfacet
  facet normal 0 0 1
    outer loop
      vertex -24 -43.7 3.50005
      vertex -27.2 -40.5 3.50005
      vertex -24.6243 -43.6385 3.50005
    endloop
  endfacet
  facet normal 0 0 1
    outer loop
      vertex -24.6243 -43.6385 3.50005
      vertex -27.2 -40.5 3.50005
      vertex -25.2246 -43.4564 3.50005
    endloop
  endfacet
  facet normal 0 0 1
    outer loop
      vertex -25.2246 -43.4564 3.50005
      vertex -27.2 -40.5 3.50005
      vertex -25.7778 -43.1607 3.50005
    endloop
  endfacet
  facet normal 0 0 1
    outer loop
      vertex -25.7778 -43.1607 3.50005
      vertex -27.2 -40.5 3.50005
      vertex -26.2627 -42.7627 3.50005
    endloop
  endfacet
  facet normal 0 0 1
    outer loop
      vertex -26.2627 -42.7627 3.50005
      vertex -27.2 -40.5 3.50005
      vertex -26.6607 -42.2778 3.50005
    endloop
  endfacet
  facet normal 0 0 1
    outer loop
      vertex -26.6607 -42.2778 3.50005
      vertex -27.2 -40.5 3.50005
      vertex -26.9564 -41.7246 3.50005
    endloop
  endfacet
  facet normal 0 0 1
    outer loop
      vertex -27.2 -40.5 3.50005
      vertex -19.25 -35.75 3.50005
      vertex -27.2 -35.75 3.50005
    endloop
  endfacet
  facet normal 0 0 1
    outer loop
      vertex -26.9564 -41.7246 3.50005
      vertex -27.2 -40.5 3.50005
      vertex -27.1385 -41.1243 3.50005
    endloop
  endfacet
  facet normal -0 0 1
    outer loop
      vertex -24 43.7 3.50005
      vertex -19.25 35.75 3.50005
      vertex -19.25 43.7 3.50005
    endloop
  endfacet
  facet normal 0 0 1
    outer loop
      vertex -27.2 40.5 3.50005
      vertex -24 43.7 3.50005
      vertex -24.6243 43.6385 3.50005
    endloop
  endfacet
  facet normal 0 0 1
    outer loop
      vertex -27.2 40.5 3.50005
      vertex -24.6243 43.6385 3.50005
      vertex -25.2246 43.4564 3.50005
    endloop
  endfacet
  facet normal 0 0 1
    outer loop
      vertex -27.2 40.5 3.50005
      vertex -25.2246 43.4564 3.50005
      vertex -25.7778 43.1607 3.50005
    endloop
  endfacet
  facet normal 0 0 1
    outer loop
      vertex -27.2 40.5 3.50005
      vertex -25.7778 43.1607 3.50005
      vertex -26.2627 42.7627 3.50005
    endloop
  endfacet
  facet normal 0 0 1
    outer loop
      vertex -27.2 40.5 3.50005
      vertex -26.2627 42.7627 3.50005
      vertex -26.6607 42.2778 3.50005
    endloop
  endfacet
  facet normal 0 0 1
    outer loop
      vertex -27.2 40.5 3.50005
      vertex -26.6607 42.2778 3.50005
      vertex -26.9564 41.7246 3.50005
    endloop
  endfacet
  facet normal 0 0 1
    outer loop
      vertex -27.2 40.5 3.50005
      vertex -26.9564 41.7246 3.50005
      vertex -27.1385 41.1243 3.50005
    endloop
  endfacet
  facet normal 0 0 1
    outer loop
      vertex -24 43.7 3.50005
      vertex -27.2 40.5 3.50005
      vertex -19.25 35.75 3.50005
    endloop
  endfacet
  facet normal 0 0 1
    outer loop
      vertex -19.25 35.75 3.50005
      vertex -27.2 40.5 3.50005
      vertex -27.2 35.75 3.50005
    endloop
  endfacet
  facet normal -0 0 1
    outer loop
      vertex 19.25 -35.75 3.50005
      vertex 27.2 -40.5 3.50005
      vertex 27.2 -35.75 3.50005
    endloop
  endfacet
  facet normal 0 -0 1
    outer loop
      vertex 24 -43.7 3.50005
      vertex 27.2 -40.5 3.50005
      vertex 19.25 -35.75 3.50005
    endloop
  endfacet
  facet normal 0 0 1
    outer loop
      vertex 27.2 -40.5 3.50005
      vertex 24 -43.7 3.50005
      vertex 27.1385 -41.1243 3.50005
    endloop
  endfacet
  facet normal 0 0 1
    outer loop
      vertex 27.1385 -41.1243 3.50005
      vertex 24 -43.7 3.50005
      vertex 26.9564 -41.7246 3.50005
    endloop
  endfacet
  facet normal 0 0 1
    outer loop
      vertex 26.6607 -42.2778 3.50005
      vertex 24 -43.7 3.50005
      vertex 26.2627 -42.7627 3.50005
    endloop
  endfacet
  facet normal 0 0 1
    outer loop
      vertex 26.2627 -42.7627 3.50005
      vertex 24 -43.7 3.50005
      vertex 25.7778 -43.1607 3.50005
    endloop
  endfacet
  facet normal 0 0 1
    outer loop
      vertex 25.7778 -43.1607 3.50005
      vertex 24 -43.7 3.50005
      vertex 25.2246 -43.4564 3.50005
    endloop
  endfacet
  facet normal 0 0 1
    outer loop
      vertex 25.2246 -43.4564 3.50005
      vertex 24 -43.7 3.50005
      vertex 24.6243 -43.6385 3.50005
    endloop
  endfacet
  facet normal 0 0 1
    outer loop
      vertex 26.9564 -41.7246 3.50005
      vertex 24 -43.7 3.50005
      vertex 26.6607 -42.2778 3.50005
    endloop
  endfacet
  facet normal 0 0 1
    outer loop
      vertex 24 -43.7 3.50005
      vertex 19.25 -35.75 3.50005
      vertex 19.25 -43.7 3.50005
    endloop
  endfacet
  facet normal 0 0 1
    outer loop
      vertex 24 43.7 3.50005
      vertex 27.2 40.5 3.50005
      vertex 27.1385 41.1243 3.50005
    endloop
  endfacet
  facet normal 0 0 1
    outer loop
      vertex 24 43.7 3.50005
      vertex 27.1385 41.1243 3.50005
      vertex 26.9564 41.7246 3.50005
    endloop
  endfacet
  facet normal 0 0 1
    outer loop
      vertex 24 43.7 3.50005
      vertex 26.9564 41.7246 3.50005
      vertex 26.6607 42.2778 3.50005
    endloop
  endfacet
  facet normal 0 0 1
    outer loop
      vertex 24 43.7 3.50005
      vertex 26.6607 42.2778 3.50005
      vertex 26.2627 42.7627 3.50005
    endloop
  endfacet
  facet normal 0 0 1
    outer loop
      vertex 24 43.7 3.50005
      vertex 26.2627 42.7627 3.50005
      vertex 25.7778 43.1607 3.50005
    endloop
  endfacet
  facet normal 0 0 1
    outer loop
      vertex 24 43.7 3.50005
      vertex 25.7778 43.1607 3.50005
      vertex 25.2246 43.4564 3.50005
    endloop
  endfacet
  facet normal 0 0 1
    outer loop
      vertex 24 43.7 3.50005
      vertex 25.2246 43.4564 3.50005
      vertex 24.6243 43.6385 3.50005
    endloop
  endfacet
  facet normal 0 0 1
    outer loop
      vertex 27.2 40.5 3.50005
      vertex 24 43.7 3.50005
      vertex 19.25 35.75 3.50005
    endloop
  endfacet
  facet normal 0 0 1
    outer loop
      vertex 19.25 35.75 3.50005
      vertex 24 43.7 3.50005
      vertex 19.25 43.7 3.50005
    endloop
  endfacet
  facet normal 0 0 1
    outer loop
      vertex 27.2 40.5 3.50005
      vertex 19.25 35.75 3.50005
      vertex 27.2 35.75 3.50005
    endloop
  endfacet
  facet normal -0.651969 0.535129 0.53719
    outer loop
      vertex -26.2627 42.7627 3.50005
      vertex -26.8284 43.3284 2.24995
      vertex -26.6607 42.2778 3.50005
    endloop
  endfacet
  facet normal -0.651955 0.535139 0.537197
    outer loop
      vertex -26.8284 43.3284 2.24995
      vertex -27.3259 42.7223 2.24995
      vertex -26.6607 42.2778 3.50005
    endloop
  endfacet
  facet normal 0.839406 0.0826902 0.537177
    outer loop
      vertex 28 40.5 2.24995
      vertex 27.1385 41.1243 3.50005
      vertex 27.2 40.5 3.50005
    endloop
  endfacet
  facet normal -0.651969 -0.535129 0.53719
    outer loop
      vertex -26.6607 -42.2778 3.50005
      vertex -26.8284 -43.3284 2.24995
      vertex -26.2627 -42.7627 3.50005
    endloop
  endfacet
  facet normal -0.83941 -0.0827148 0.537167
    outer loop
      vertex -27.1385 -41.1243 3.50005
      vertex -28 -40.5 2.24995
      vertex -27.9231 -41.2804 2.24995
    endloop
  endfacet
  facet normal 0.535139 0.651955 0.537197
    outer loop
      vertex 26.2223 43.8259 2.24995
      vertex 25.7778 43.1607 3.50005
      vertex 26.8284 43.3284 2.24995
    endloop
  endfacet
  facet normal 0.743894 0.397547 0.537195
    outer loop
      vertex 26.6607 42.2778 3.50005
      vertex 27.6955 42.0307 2.24995
      vertex 27.3259 42.7223 2.24995
    endloop
  endfacet
  facet normal 0.743876 0.397621 0.537165
    outer loop
      vertex 27.6955 42.0307 2.24995
      vertex 26.6607 42.2778 3.50005
      vertex 26.9564 41.7246 3.50005
    endloop
  endfacet
  facet normal 0.290283 -0.956941 0
    outer loop
      vertex 24.7804 -44.4231 1.00005
      vertex 25.5307 -44.1955 2.24995
      vertex 24.7804 -44.4231 2.24995
    endloop
  endfacet
  facet normal 0.290283 -0.956941 0
    outer loop
      vertex 25.5307 -44.1955 2.24995
      vertex 24.7804 -44.4231 1.00005
      vertex 25.5307 -44.1955 1.00005
    endloop
  endfacet
  facet normal 0.743876 -0.397621 0.537165
    outer loop
      vertex 26.6607 -42.2778 3.50005
      vertex 27.6955 -42.0307 2.24995
      vertex 26.9564 -41.7246 3.50005
    endloop
  endfacet
  facet normal 0.743894 -0.397547 0.537195
    outer loop
      vertex 27.6955 -42.0307 2.24995
      vertex 26.6607 -42.2778 3.50005
      vertex 27.3259 -42.7223 2.24995
    endloop
  endfacet
  facet normal 0.244849 -0.807155 0.537169
    outer loop
      vertex 25.2246 -43.4564 3.50005
      vertex 24.6243 -43.6385 3.50005
      vertex 24.7804 -44.4231 2.24995
    endloop
  endfacet
  facet normal 0 -1 0
    outer loop
      vertex -24 -44.5 1.00005
      vertex -19.25 -44.5 2.24995
      vertex -24 -44.5 2.24995
    endloop
  endfacet
  facet normal 0 -1 -0
    outer loop
      vertex -19.25 -44.5 2.24995
      vertex -24 -44.5 1.00005
      vertex -19.25 -44.5 1.00005
    endloop
  endfacet
  facet normal 0 -1 0
    outer loop
      vertex 19.25 -44.5 1.00005
      vertex 24 -44.5 2.24995
      vertex 19.25 -44.5 2.24995
    endloop
  endfacet
  facet normal 0 -1 -0
    outer loop
      vertex 24 -44.5 2.24995
      vertex 19.25 -44.5 1.00005
      vertex 24 -44.5 1.00005
    endloop
  endfacet
  facet normal 0.0826902 0.839406 0.537177
    outer loop
      vertex 24 44.5 2.24995
      vertex 24 43.7 3.50005
      vertex 24.6243 43.6385 3.50005
    endloop
  endfacet
  facet normal -0.807155 0.244849 0.537169
    outer loop
      vertex -26.9564 41.7246 3.50005
      vertex -27.9231 41.2804 2.24995
      vertex -27.1385 41.1243 3.50005
    endloop
  endfacet
  facet normal -0.83941 0.0827148 0.537167
    outer loop
      vertex -27.9231 41.2804 2.24995
      vertex -28 40.5 2.24995
      vertex -27.1385 41.1243 3.50005
    endloop
  endfacet
  facet normal 0.0827148 0.83941 0.537167
    outer loop
      vertex 24.7804 44.4231 2.24995
      vertex 24 44.5 2.24995
      vertex 24.6243 43.6385 3.50005
    endloop
  endfacet
  facet normal -0.743876 -0.397621 0.537165
    outer loop
      vertex -27.6955 -42.0307 2.24995
      vertex -26.6607 -42.2778 3.50005
      vertex -26.9564 -41.7246 3.50005
    endloop
  endfacet
  facet normal -0.743894 -0.397547 0.537195
    outer loop
      vertex -26.6607 -42.2778 3.50005
      vertex -27.6955 -42.0307 2.24995
      vertex -27.3259 -42.7223 2.24995
    endloop
  endfacet
  facet normal 0.244849 0.807155 0.537169
    outer loop
      vertex 24.7804 44.4231 2.24995
      vertex 24.6243 43.6385 3.50005
      vertex 25.2246 43.4564 3.50005
    endloop
  endfacet
  facet normal 0.397621 -0.743876 0.537165
    outer loop
      vertex 25.5307 -44.1955 2.24995
      vertex 25.7778 -43.1607 3.50005
      vertex 25.2246 -43.4564 3.50005
    endloop
  endfacet
  facet normal 0.397547 -0.743894 0.537195
    outer loop
      vertex 25.7778 -43.1607 3.50005
      vertex 25.5307 -44.1955 2.24995
      vertex 26.2223 -43.8259 2.24995
    endloop
  endfacet
  facet normal 0.807155 -0.244849 0.537169
    outer loop
      vertex 27.1385 -41.1243 3.50005
      vertex 26.9564 -41.7246 3.50005
      vertex 27.9231 -41.2804 2.24995
    endloop
  endfacet
  facet normal -0.535139 -0.651955 0.537197
    outer loop
      vertex -25.7778 -43.1607 3.50005
      vertex -26.8284 -43.3284 2.24995
      vertex -26.2223 -43.8259 2.24995
    endloop
  endfacet
  facet normal -0.651955 -0.535139 0.537197
    outer loop
      vertex -26.6607 -42.2778 3.50005
      vertex -27.3259 -42.7223 2.24995
      vertex -26.8284 -43.3284 2.24995
    endloop
  endfacet
  facet normal -0.397547 -0.743894 0.537195
    outer loop
      vertex -25.5307 -44.1955 2.24995
      vertex -25.7778 -43.1607 3.50005
      vertex -26.2223 -43.8259 2.24995
    endloop
  endfacet
  facet normal -0.397621 -0.743876 0.537165
    outer loop
      vertex -25.7778 -43.1607 3.50005
      vertex -25.5307 -44.1955 2.24995
      vertex -25.2246 -43.4564 3.50005
    endloop
  endfacet
  facet normal -0.535139 0.651955 0.537197
    outer loop
      vertex -26.2223 43.8259 2.24995
      vertex -26.8284 43.3284 2.24995
      vertex -25.7778 43.1607 3.50005
    endloop
  endfacet
  facet normal 0.842291 -0 0.539023
    outer loop
      vertex 27.2 35.75 3.50005
      vertex 28 40.5 2.24995
      vertex 27.2 40.5 3.50005
    endloop
  endfacet
  facet normal 0.842291 0 0.539023
    outer loop
      vertex 28 40.5 2.24995
      vertex 27.2 35.75 3.50005
      vertex 28 35.75 2.24995
    endloop
  endfacet
  facet normal 0.842291 -0 0.539023
    outer loop
      vertex 27.2 -40.5 3.50005
      vertex 28 -35.75 2.24995
      vertex 27.2 -35.75 3.50005
    endloop
  endfacet
  facet normal 0.842291 0 0.539023
    outer loop
      vertex 28 -35.75 2.24995
      vertex 27.2 -40.5 3.50005
      vertex 28 -40.5 2.24995
    endloop
  endfacet
  facet normal 0 0.842291 0.539023
    outer loop
      vertex 24 44.5 2.24995
      vertex 19.25 43.7 3.50005
      vertex 24 43.7 3.50005
    endloop
  endfacet
  facet normal 0 0.842291 0.539023
    outer loop
      vertex 19.25 43.7 3.50005
      vertex 24 44.5 2.24995
      vertex 19.25 44.5 2.24995
    endloop
  endfacet
  facet normal 0 0.842291 0.539023
    outer loop
      vertex -19.25 44.5 2.24995
      vertex -24 43.7 3.50005
      vertex -19.25 43.7 3.50005
    endloop
  endfacet
  facet normal 0 0.842291 0.539023
    outer loop
      vertex -24 43.7 3.50005
      vertex -19.25 44.5 2.24995
      vertex -24 44.5 2.24995
    endloop
  endfacet
  facet normal -0.535129 -0.651969 0.53719
    outer loop
      vertex -26.2627 -42.7627 3.50005
      vertex -26.8284 -43.3284 2.24995
      vertex -25.7778 -43.1607 3.50005
    endloop
  endfacet
  facet normal 0.807155 -0.244847 0.53717
    outer loop
      vertex 27.9231 -41.2804 2.24995
      vertex 26.9564 -41.7246 3.50005
      vertex 27.6955 -42.0307 2.24995
    endloop
  endfacet
  facet normal 0.535129 -0.651969 0.53719
    outer loop
      vertex 26.2627 -42.7627 3.50005
      vertex 25.7778 -43.1607 3.50005
      vertex 26.8284 -43.3284 2.24995
    endloop
  endfacet
  facet normal 0.535139 -0.651955 0.537197
    outer loop
      vertex 26.8284 -43.3284 2.24995
      vertex 25.7778 -43.1607 3.50005
      vertex 26.2223 -43.8259 2.24995
    endloop
  endfacet
  facet normal 0.0826902 -0.839406 0.537177
    outer loop
      vertex 24 -43.7 3.50005
      vertex 24 -44.5 2.24995
      vertex 24.6243 -43.6385 3.50005
    endloop
  endfacet
  facet normal -0.634459 -0.772956 0
    outer loop
      vertex -26.8284 -43.3284 1.00005
      vertex -26.2223 -43.8259 2.24995
      vertex -26.8284 -43.3284 2.24995
    endloop
  endfacet
  facet normal -0.634459 -0.772956 -0
    outer loop
      vertex -26.2223 -43.8259 2.24995
      vertex -26.8284 -43.3284 1.00005
      vertex -26.2223 -43.8259 1.00005
    endloop
  endfacet
  facet normal 0.244847 -0.807155 0.53717
    outer loop
      vertex 25.2246 -43.4564 3.50005
      vertex 24.7804 -44.4231 2.24995
      vertex 25.5307 -44.1955 2.24995
    endloop
  endfacet
  facet normal -0.244847 0.807155 0.53717
    outer loop
      vertex -24.7804 44.4231 2.24995
      vertex -25.5307 44.1955 2.24995
      vertex -25.2246 43.4564 3.50005
    endloop
  endfacet
  facet normal -0.397621 0.743876 0.537165
    outer loop
      vertex -25.5307 44.1955 2.24995
      vertex -25.7778 43.1607 3.50005
      vertex -25.2246 43.4564 3.50005
    endloop
  endfacet
  facet normal -0.397547 0.743894 0.537195
    outer loop
      vertex -25.7778 43.1607 3.50005
      vertex -25.5307 44.1955 2.24995
      vertex -26.2223 43.8259 2.24995
    endloop
  endfacet
  facet normal -0.0826902 0.839406 0.537177
    outer loop
      vertex -24 44.5 2.24995
      vertex -24.6243 43.6385 3.50005
      vertex -24 43.7 3.50005
    endloop
  endfacet
  facet normal -0.0827148 0.83941 0.537167
    outer loop
      vertex -24 44.5 2.24995
      vertex -24.7804 44.4231 2.24995
      vertex -24.6243 43.6385 3.50005
    endloop
  endfacet
  facet normal -1 0 0
    outer loop
      vertex 19.25 -35.75 1.00005
      vertex 19.25 -43.7 3.50005
      vertex 19.25 -35.75 3.50005
    endloop
  endfacet
  facet normal -1 0 0
    outer loop
      vertex 19.25 -44.5 1.00005
      vertex 19.25 -43.7 3.50005
      vertex 19.25 -35.75 1.00005
    endloop
  endfacet
  facet normal -1 0 0
    outer loop
      vertex 19.25 -43.7 3.50005
      vertex 19.25 -44.5 1.00005
      vertex 19.25 -44.5 2.24995
    endloop
  endfacet
  facet normal -1 0 0
    outer loop
      vertex 19.25 44.5 1.00005
      vertex 19.25 43.7 3.50005
      vertex 19.25 44.5 2.24995
    endloop
  endfacet
  facet normal -1 0 0
    outer loop
      vertex 19.25 35.75 1.00005
      vertex 19.25 43.7 3.50005
      vertex 19.25 44.5 1.00005
    endloop
  endfacet
  facet normal -1 -0 0
    outer loop
      vertex 19.25 43.7 3.50005
      vertex 19.25 35.75 1.00005
      vertex 19.25 35.75 3.50005
    endloop
  endfacet
  facet normal 1 -0 0
    outer loop
      vertex -19.25 -43.7 3.50005
      vertex -19.25 -35.75 1.00005
      vertex -19.25 -35.75 3.50005
    endloop
  endfacet
  facet normal 1 0 0
    outer loop
      vertex -19.25 -44.5 1.00005
      vertex -19.25 -43.7 3.50005
      vertex -19.25 -44.5 2.24995
    endloop
  endfacet
  facet normal 1 0 0
    outer loop
      vertex -19.25 -43.7 3.50005
      vertex -19.25 -44.5 1.00005
      vertex -19.25 -35.75 1.00005
    endloop
  endfacet
  facet normal 1 0 0
    outer loop
      vertex -19.25 43.7 3.50005
      vertex -19.25 44.5 1.00005
      vertex -19.25 44.5 2.24995
    endloop
  endfacet
  facet normal 1 0 0
    outer loop
      vertex -19.25 35.75 1.00005
      vertex -19.25 43.7 3.50005
      vertex -19.25 35.75 3.50005
    endloop
  endfacet
  facet normal 1 0 0
    outer loop
      vertex -19.25 43.7 3.50005
      vertex -19.25 35.75 1.00005
      vertex -19.25 44.5 1.00005
    endloop
  endfacet
  facet normal 0 -1 0
    outer loop
      vertex -28 35.75 1.00005
      vertex -27.2 35.75 3.50005
      vertex -28 35.75 2.24995
    endloop
  endfacet
  facet normal 0 -1 -0
    outer loop
      vertex -27.2 35.75 3.50005
      vertex -28 35.75 1.00005
      vertex -19.25 35.75 1.00005
    endloop
  endfacet
  facet normal 0 -1 0
    outer loop
      vertex -27.2 35.75 3.50005
      vertex -19.25 35.75 1.00005
      vertex -19.25 35.75 3.50005
    endloop
  endfacet
  facet normal 0 -1 0
    outer loop
      vertex 19.25 35.75 1.00005
      vertex 27.2 35.75 3.50005
      vertex 19.25 35.75 3.50005
    endloop
  endfacet
  facet normal 0 -1 0
    outer loop
      vertex 28 35.75 1.00005
      vertex 27.2 35.75 3.50005
      vertex 19.25 35.75 1.00005
    endloop
  endfacet
  facet normal 0 -1 0
    outer loop
      vertex 27.2 35.75 3.50005
      vertex 28 35.75 1.00005
      vertex 28 35.75 2.24995
    endloop
  endfacet
  facet normal 0 1 -0
    outer loop
      vertex -19.25 -35.75 1.00005
      vertex -27.2 -35.75 3.50005
      vertex -19.25 -35.75 3.50005
    endloop
  endfacet
  facet normal 0 1 0
    outer loop
      vertex -28 -35.75 1.00005
      vertex -27.2 -35.75 3.50005
      vertex -19.25 -35.75 1.00005
    endloop
  endfacet
  facet normal 0 1 0
    outer loop
      vertex -27.2 -35.75 3.50005
      vertex -28 -35.75 1.00005
      vertex -28 -35.75 2.24995
    endloop
  endfacet
  facet normal 0 1 -0
    outer loop
      vertex 28 -35.75 1.00005
      vertex 27.2 -35.75 3.50005
      vertex 28 -35.75 2.24995
    endloop
  endfacet
  facet normal 0 1 0
    outer loop
      vertex 27.2 -35.75 3.50005
      vertex 28 -35.75 1.00005
      vertex 19.25 -35.75 1.00005
    endloop
  endfacet
  facet normal 0 1 0
    outer loop
      vertex 27.2 -35.75 3.50005
      vertex 19.25 -35.75 1.00005
      vertex 19.25 -35.75 3.50005
    endloop
  endfacet
  facet normal 0.73491 0.39283 -0.552804
    outer loop
      vertex 31.1194 44.9134 0.50005
      vertex 29.8259 45.2223 -1.00005
      vertex 30.6573 45.7779 0.50005
    endloop
  endfacet
  facet normal 0.644135 0.528673 -0.552806
    outer loop
      vertex 30.6573 45.7779 0.50005
      vertex 29.8259 45.2223 -1.00005
      vertex 30.0355 46.5355 0.50005
    endloop
  endfacet
  facet normal 0.634426 0.772984 -0
    outer loop
      vertex 30.0355 46.5355 0.50005
      vertex 29.2779 47.1573 1.00005
      vertex 30.0355 46.5355 1.00005
    endloop
  endfacet
  facet normal 0.634426 0.772984 0
    outer loop
      vertex 29.2779 47.1573 1.00005
      vertex 30.0355 46.5355 0.50005
      vertex 29.2779 47.1573 0.50005
    endloop
  endfacet
  facet normal -0.797416 0.241886 -0.552828
    outer loop
      vertex -30.4231 43.7804 -1.00005
      vertex -31.4039 43.9755 0.50005
      vertex -31.1194 44.9134 0.50005
    endloop
  endfacet
  facet normal 0.832067 0 -0.554675
    outer loop
      vertex 31.5 -43 0.50005
      vertex 30.5 43 -1.00005
      vertex 31.5 43 0.50005
    endloop
  endfacet
  facet normal 0.832067 0 -0.554675
    outer loop
      vertex 30.5 43 -1.00005
      vertex 31.5 -43 0.50005
      vertex 30.5 -43 -1.00005
    endloop
  endfacet
  facet normal 0.471409 -0.881915 0
    outer loop
      vertex 28.4134 -47.6194 0.50005
      vertex 29.2779 -47.1573 1.00005
      vertex 28.4134 -47.6194 1.00005
    endloop
  endfacet
  facet normal 0.471409 -0.881915 0
    outer loop
      vertex 29.2779 -47.1573 1.00005
      vertex 28.4134 -47.6194 0.50005
      vertex 29.2779 -47.1573 0.50005
    endloop
  endfacet
  facet normal 0.772984 -0.634426 0
    outer loop
      vertex 30.0355 -46.5355 1.00005
      vertex 30.6573 -45.7779 0.50005
      vertex 30.6573 -45.7779 1.00005
    endloop
  endfacet
  facet normal 0.772984 -0.634426 0
    outer loop
      vertex 30.6573 -45.7779 0.50005
      vertex 30.0355 -46.5355 1.00005
      vertex 30.0355 -46.5355 0.50005
    endloop
  endfacet
  facet normal 0.797416 -0.241886 -0.552828
    outer loop
      vertex 31.1194 -44.9134 0.50005
      vertex 30.4231 -43.7804 -1.00005
      vertex 31.4039 -43.9755 0.50005
    endloop
  endfacet
  facet normal -0 0 1
    outer loop
      vertex -28 35.75 1.00005
      vertex -19.25 -35.75 1.00005
      vertex -19.25 35.75 1.00005
    endloop
  endfacet
  facet normal 0 0 1
    outer loop
      vertex -19.25 -35.75 1.00005
      vertex -28 35.75 1.00005
      vertex -28 -35.75 1.00005
    endloop
  endfacet
  facet normal -0 0 1
    outer loop
      vertex 19.25 35.75 1.00005
      vertex 28 -35.75 1.00005
      vertex 28 35.75 1.00005
    endloop
  endfacet
  facet normal 0 0 1
    outer loop
      vertex 28 -35.75 1.00005
      vertex 19.25 35.75 1.00005
      vertex 19.25 -35.75 1.00005
    endloop
  endfacet
  facet normal 0 0 1
    outer loop
      vertex 27.6955 42.0307 1.00005
      vertex 31.5 43 1.00005
      vertex 31.4039 43.9755 1.00005
    endloop
  endfacet
  facet normal 0 0 1
    outer loop
      vertex 31.5 43 1.00005
      vertex 28 35.75 1.00005
      vertex 31.5 -43 1.00005
    endloop
  endfacet
  facet normal 0 0 1
    outer loop
      vertex 27.3259 42.7223 1.00005
      vertex 31.4039 43.9755 1.00005
      vertex 31.1194 44.9134 1.00005
    endloop
  endfacet
  facet normal -0 0 1
    outer loop
      vertex 28 -35.75 1.00005
      vertex 31.5 -43 1.00005
      vertex 28 35.75 1.00005
    endloop
  endfacet
  facet normal 0 0 1
    outer loop
      vertex 27.3259 42.7223 1.00005
      vertex 31.1194 44.9134 1.00005
      vertex 30.6573 45.7779 1.00005
    endloop
  endfacet
  facet normal -0 0 1
    outer loop
      vertex 28 -40.5 1.00005
      vertex 31.5 -43 1.00005
      vertex 28 -35.75 1.00005
    endloop
  endfacet
  facet normal 0 0 1
    outer loop
      vertex 26.8284 43.3284 1.00005
      vertex 30.6573 45.7779 1.00005
      vertex 30.0355 46.5355 1.00005
    endloop
  endfacet
  facet normal -0 0 1
    outer loop
      vertex 27.9231 -41.2804 1.00005
      vertex 31.5 -43 1.00005
      vertex 28 -40.5 1.00005
    endloop
  endfacet
  facet normal 0 0 1
    outer loop
      vertex 26.8284 43.3284 1.00005
      vertex 30.0355 46.5355 1.00005
      vertex 29.2779 47.1573 1.00005
    endloop
  endfacet
  facet normal -0 0 1
    outer loop
      vertex 27.6955 -42.0307 1.00005
      vertex 31.5 -43 1.00005
      vertex 27.9231 -41.2804 1.00005
    endloop
  endfacet
  facet normal 0 0 1
    outer loop
      vertex 26.2223 43.8259 1.00005
      vertex 29.2779 47.1573 1.00005
      vertex 28.4134 47.6194 1.00005
    endloop
  endfacet
  facet normal 0 0 1
    outer loop
      vertex 31.5 -43 1.00005
      vertex 27.6955 -42.0307 1.00005
      vertex 31.4039 -43.9755 1.00005
    endloop
  endfacet
  facet normal 0 0 1
    outer loop
      vertex 31.5 43 1.00005
      vertex 28 40.5 1.00005
      vertex 28 35.75 1.00005
    endloop
  endfacet
  facet normal 0 0 1
    outer loop
      vertex 31.5 43 1.00005
      vertex 27.9231 41.2804 1.00005
      vertex 28 40.5 1.00005
    endloop
  endfacet
  facet normal 0 0 1
    outer loop
      vertex 31.5 43 1.00005
      vertex 27.6955 42.0307 1.00005
      vertex 27.9231 41.2804 1.00005
    endloop
  endfacet
  facet normal 0 0 1
    outer loop
      vertex 26.2223 43.8259 1.00005
      vertex 28.4134 47.6194 1.00005
      vertex 27.4755 47.9039 1.00005
    endloop
  endfacet
  facet normal 0 0 1
    outer loop
      vertex 31.4039 43.9755 1.00005
      vertex 27.3259 42.7223 1.00005
      vertex 27.6955 42.0307 1.00005
    endloop
  endfacet
  facet normal 0 0 1
    outer loop
      vertex 30.6573 45.7779 1.00005
      vertex 26.8284 43.3284 1.00005
      vertex 27.3259 42.7223 1.00005
    endloop
  endfacet
  facet normal 0 0 1
    outer loop
      vertex 25.5307 44.1955 1.00005
      vertex 27.4755 47.9039 1.00005
      vertex 26.5 48 1.00005
    endloop
  endfacet
  facet normal 0 0 1
    outer loop
      vertex 29.2779 47.1573 1.00005
      vertex 26.2223 43.8259 1.00005
      vertex 26.8284 43.3284 1.00005
    endloop
  endfacet
  facet normal 0 0 1
    outer loop
      vertex 27.4755 47.9039 1.00005
      vertex 25.5307 44.1955 1.00005
      vertex 26.2223 43.8259 1.00005
    endloop
  endfacet
  facet normal 0 0 1
    outer loop
      vertex 26.5 48 1.00005
      vertex 24.7804 44.4231 1.00005
      vertex 25.5307 44.1955 1.00005
    endloop
  endfacet
  facet normal 0 0 1
    outer loop
      vertex 26.5 48 1.00005
      vertex 24 44.5 1.00005
      vertex 24.7804 44.4231 1.00005
    endloop
  endfacet
  facet normal 0 0 1
    outer loop
      vertex 26.5 48 1.00005
      vertex 19.25 44.5 1.00005
      vertex 24 44.5 1.00005
    endloop
  endfacet
  facet normal 0 0 1
    outer loop
      vertex -19.25 35.75 1.00005
      vertex 19.25 35.75 1.00005
      vertex 19.25 44.5 1.00005
    endloop
  endfacet
  facet normal 0 0 1
    outer loop
      vertex 19.25 35.75 1.00005
      vertex -19.25 35.75 1.00005
      vertex 19.25 -35.75 1.00005
    endloop
  endfacet
  facet normal 0 0 1
    outer loop
      vertex 19.25 -35.75 1.00005
      vertex 18.5 -36.25 1.00005
      vertex 19.25 -44.5 1.00005
    endloop
  endfacet
  facet normal 0 0 1
    outer loop
      vertex -19.25 -35.75 1.00005
      vertex 19.25 -35.75 1.00005
      vertex -19.25 35.75 1.00005
    endloop
  endfacet
  facet normal 0 0 1
    outer loop
      vertex 19.25 -35.75 1.00005
      vertex -19.25 -35.75 1.00005
      vertex 18.5 -36.25 1.00005
    endloop
  endfacet
  facet normal 0 0 1
    outer loop
      vertex -19.25 35.75 1.00005
      vertex 19.25 44.5 1.00005
      vertex -19.25 44.5 1.00005
    endloop
  endfacet
  facet normal 0 0 1
    outer loop
      vertex 26.5 48 1.00005
      vertex -19.25 44.5 1.00005
      vertex 19.25 44.5 1.00005
    endloop
  endfacet
  facet normal -0 0 1
    outer loop
      vertex -26.5 48 1.00005
      vertex -19.25 44.5 1.00005
      vertex 26.5 48 1.00005
    endloop
  endfacet
  facet normal 0 0 1
    outer loop
      vertex -19.25 44.5 1.00005
      vertex -26.5 48 1.00005
      vertex -24 44.5 1.00005
    endloop
  endfacet
  facet normal 0 0 1
    outer loop
      vertex -26.5 48 1.00005
      vertex -24.7804 44.4231 1.00005
      vertex -24 44.5 1.00005
    endloop
  endfacet
  facet normal 0 0 1
    outer loop
      vertex -26.5 48 1.00005
      vertex -25.5307 44.1955 1.00005
      vertex -24.7804 44.4231 1.00005
    endloop
  endfacet
  facet normal -0 0 1
    outer loop
      vertex -27.4755 47.9039 1.00005
      vertex -25.5307 44.1955 1.00005
      vertex -26.5 48 1.00005
    endloop
  endfacet
  facet normal 0 0 1
    outer loop
      vertex -25.5307 44.1955 1.00005
      vertex -27.4755 47.9039 1.00005
      vertex -26.2223 43.8259 1.00005
    endloop
  endfacet
  facet normal -0 0 1
    outer loop
      vertex -28.4134 47.6194 1.00005
      vertex -26.2223 43.8259 1.00005
      vertex -27.4755 47.9039 1.00005
    endloop
  endfacet
  facet normal -0 0 1
    outer loop
      vertex -29.2779 47.1573 1.00005
      vertex -26.2223 43.8259 1.00005
      vertex -28.4134 47.6194 1.00005
    endloop
  endfacet
  facet normal 0 0 1
    outer loop
      vertex -26.2223 43.8259 1.00005
      vertex -29.2779 47.1573 1.00005
      vertex -26.8284 43.3284 1.00005
    endloop
  endfacet
  facet normal -0 0 1
    outer loop
      vertex -30.0355 46.5355 1.00005
      vertex -26.8284 43.3284 1.00005
      vertex -29.2779 47.1573 1.00005
    endloop
  endfacet
  facet normal -0 0 1
    outer loop
      vertex -30.6573 45.7779 1.00005
      vertex -26.8284 43.3284 1.00005
      vertex -30.0355 46.5355 1.00005
    endloop
  endfacet
  facet normal 0 0 1
    outer loop
      vertex -31.5 43 1.00005
      vertex -28 35.75 1.00005
      vertex -28 40.5 1.00005
    endloop
  endfacet
  facet normal 0 0 1
    outer loop
      vertex -28 35.75 1.00005
      vertex -31.5 43 1.00005
      vertex -28 -35.75 1.00005
    endloop
  endfacet
  facet normal -0 0 1
    outer loop
      vertex -31.1194 44.9134 1.00005
      vertex -27.3259 42.7223 1.00005
      vertex -30.6573 45.7779 1.00005
    endloop
  endfacet
  facet normal 0 0 1
    outer loop
      vertex -26.8284 43.3284 1.00005
      vertex -30.6573 45.7779 1.00005
      vertex -27.3259 42.7223 1.00005
    endloop
  endfacet
  facet normal -0 0 1
    outer loop
      vertex 27.3259 -42.7223 1.00005
      vertex 31.4039 -43.9755 1.00005
      vertex 27.6955 -42.0307 1.00005
    endloop
  endfacet
  facet normal 0 0 1
    outer loop
      vertex 31.4039 -43.9755 1.00005
      vertex 27.3259 -42.7223 1.00005
      vertex 31.1194 -44.9134 1.00005
    endloop
  endfacet
  facet normal 0 0 1
    outer loop
      vertex 31.1194 -44.9134 1.00005
      vertex 27.3259 -42.7223 1.00005
      vertex 30.6573 -45.7779 1.00005
    endloop
  endfacet
  facet normal -0 0 1
    outer loop
      vertex 26.8284 -43.3284 1.00005
      vertex 30.6573 -45.7779 1.00005
      vertex 27.3259 -42.7223 1.00005
    endloop
  endfacet
  facet normal 0 0 1
    outer loop
      vertex 30.6573 -45.7779 1.00005
      vertex 26.8284 -43.3284 1.00005
      vertex 30.0355 -46.5355 1.00005
    endloop
  endfacet
  facet normal 0 0 1
    outer loop
      vertex 30.0355 -46.5355 1.00005
      vertex 26.8284 -43.3284 1.00005
      vertex 29.2779 -47.1573 1.00005
    endloop
  endfacet
  facet normal -0 0 1
    outer loop
      vertex 26.2223 -43.8259 1.00005
      vertex 29.2779 -47.1573 1.00005
      vertex 26.8284 -43.3284 1.00005
    endloop
  endfacet
  facet normal 0 0 1
    outer loop
      vertex 29.2779 -47.1573 1.00005
      vertex 26.2223 -43.8259 1.00005
      vertex 28.4134 -47.6194 1.00005
    endloop
  endfacet
  facet normal 0 0 1
    outer loop
      vertex 28.4134 -47.6194 1.00005
      vertex 26.2223 -43.8259 1.00005
      vertex 27.4755 -47.9039 1.00005
    endloop
  endfacet
  facet normal -0 0 1
    outer loop
      vertex 25.5307 -44.1955 1.00005
      vertex 27.4755 -47.9039 1.00005
      vertex 26.2223 -43.8259 1.00005
    endloop
  endfacet
  facet normal 0 0 1
    outer loop
      vertex 27.4755 -47.9039 1.00005
      vertex 25.5307 -44.1955 1.00005
      vertex 26.5 -48 1.00005
    endloop
  endfacet
  facet normal -0 0 1
    outer loop
      vertex 24.7804 -44.4231 1.00005
      vertex 26.5 -48 1.00005
      vertex 25.5307 -44.1955 1.00005
    endloop
  endfacet
  facet normal -0 0 1
    outer loop
      vertex 24 -44.5 1.00005
      vertex 26.5 -48 1.00005
      vertex 24.7804 -44.4231 1.00005
    endloop
  endfacet
  facet normal -0 0 1
    outer loop
      vertex 19.25 -44.5 1.00005
      vertex 26.5 -48 1.00005
      vertex 24 -44.5 1.00005
    endloop
  endfacet
  facet normal -0 0 1
    outer loop
      vertex 18.5 -44.25 1.00005
      vertex 19.25 -44.5 1.00005
      vertex 18.5 -36.25 1.00005
    endloop
  endfacet
  facet normal 0 0 1
    outer loop
      vertex 18.5 -44.25 1.00005
      vertex 26.5 -48 1.00005
      vertex 19.25 -44.5 1.00005
    endloop
  endfacet
  facet normal -0 0 1
    outer loop
      vertex -18.5 -44.25 1.00005
      vertex 26.5 -48 1.00005
      vertex 18.5 -44.25 1.00005
    endloop
  endfacet
  facet normal 0 0 1
    outer loop
      vertex 18.5 -36.25 1.00005
      vertex -19.25 -35.75 1.00005
      vertex -18.5 -36.25 1.00005
    endloop
  endfacet
  facet normal 0 0 1
    outer loop
      vertex -19.25 -44.5 1.00005
      vertex -18.5 -36.25 1.00005
      vertex -19.25 -35.75 1.00005
    endloop
  endfacet
  facet normal 0 0 1
    outer loop
      vertex -18.5 -36.25 1.00005
      vertex -19.25 -44.5 1.00005
      vertex -18.5 -44.25 1.00005
    endloop
  endfacet
  facet normal 0 0 1
    outer loop
      vertex -26.5 -48 1.00005
      vertex -18.5 -44.25 1.00005
      vertex -19.25 -44.5 1.00005
    endloop
  endfacet
  facet normal 0 0 1
    outer loop
      vertex -26.5 -48 1.00005
      vertex -19.25 -44.5 1.00005
      vertex -24 -44.5 1.00005
    endloop
  endfacet
  facet normal 0 0 1
    outer loop
      vertex -18.5 -44.25 1.00005
      vertex -26.5 -48 1.00005
      vertex 26.5 -48 1.00005
    endloop
  endfacet
  facet normal 0 0 1
    outer loop
      vertex -24.7804 -44.4231 1.00005
      vertex -26.5 -48 1.00005
      vertex -24 -44.5 1.00005
    endloop
  endfacet
  facet normal 0 0 1
    outer loop
      vertex -25.5307 -44.1955 1.00005
      vertex -26.5 -48 1.00005
      vertex -24.7804 -44.4231 1.00005
    endloop
  endfacet
  facet normal 0 0 1
    outer loop
      vertex -27.4755 -47.9039 1.00005
      vertex -25.5307 -44.1955 1.00005
      vertex -26.2223 -43.8259 1.00005
    endloop
  endfacet
  facet normal 0 0 1
    outer loop
      vertex -29.2779 -47.1573 1.00005
      vertex -26.2223 -43.8259 1.00005
      vertex -26.8284 -43.3284 1.00005
    endloop
  endfacet
  facet normal 0 0 1
    outer loop
      vertex -30.6573 -45.7779 1.00005
      vertex -26.8284 -43.3284 1.00005
      vertex -27.3259 -42.7223 1.00005
    endloop
  endfacet
  facet normal 0 0 1
    outer loop
      vertex -25.5307 -44.1955 1.00005
      vertex -27.4755 -47.9039 1.00005
      vertex -26.5 -48 1.00005
    endloop
  endfacet
  facet normal 0 0 1
    outer loop
      vertex -31.4039 -43.9755 1.00005
      vertex -27.3259 -42.7223 1.00005
      vertex -27.6955 -42.0307 1.00005
    endloop
  endfacet
  facet normal 0 0 1
    outer loop
      vertex -31.5 -43 1.00005
      vertex -27.6955 -42.0307 1.00005
      vertex -27.9231 -41.2804 1.00005
    endloop
  endfacet
  facet normal 0 0 1
    outer loop
      vertex -31.5 -43 1.00005
      vertex -27.9231 -41.2804 1.00005
      vertex -28 -40.5 1.00005
    endloop
  endfacet
  facet normal 0 0 1
    outer loop
      vertex -26.2223 -43.8259 1.00005
      vertex -28.4134 -47.6194 1.00005
      vertex -27.4755 -47.9039 1.00005
    endloop
  endfacet
  facet normal 0 0 1
    outer loop
      vertex -31.5 -43 1.00005
      vertex -28 -35.75 1.00005
      vertex -31.5 43 1.00005
    endloop
  endfacet
  facet normal -0 0 1
    outer loop
      vertex -31.4039 43.9755 1.00005
      vertex -27.3259 42.7223 1.00005
      vertex -31.1194 44.9134 1.00005
    endloop
  endfacet
  facet normal 0 0 1
    outer loop
      vertex -28 -35.75 1.00005
      vertex -31.5 -43 1.00005
      vertex -28 -40.5 1.00005
    endloop
  endfacet
  facet normal 0 0 1
    outer loop
      vertex -27.3259 42.7223 1.00005
      vertex -31.4039 43.9755 1.00005
      vertex -27.6955 42.0307 1.00005
    endloop
  endfacet
  facet normal 0 0 1
    outer loop
      vertex -27.6955 -42.0307 1.00005
      vertex -31.5 -43 1.00005
      vertex -31.4039 -43.9755 1.00005
    endloop
  endfacet
  facet normal -0 0 1
    outer loop
      vertex -31.5 43 1.00005
      vertex -27.6955 42.0307 1.00005
      vertex -31.4039 43.9755 1.00005
    endloop
  endfacet
  facet normal 0 0 1
    outer loop
      vertex -26.2223 -43.8259 1.00005
      vertex -29.2779 -47.1573 1.00005
      vertex -28.4134 -47.6194 1.00005
    endloop
  endfacet
  facet normal 0 0 1
    outer loop
      vertex -27.6955 42.0307 1.00005
      vertex -31.5 43 1.00005
      vertex -27.9231 41.2804 1.00005
    endloop
  endfacet
  facet normal 0 0 1
    outer loop
      vertex -26.8284 -43.3284 1.00005
      vertex -30.0355 -46.5355 1.00005
      vertex -29.2779 -47.1573 1.00005
    endloop
  endfacet
  facet normal 0 0 1
    outer loop
      vertex -27.9231 41.2804 1.00005
      vertex -31.5 43 1.00005
      vertex -28 40.5 1.00005
    endloop
  endfacet
  facet normal 0 0 1
    outer loop
      vertex -26.8284 -43.3284 1.00005
      vertex -30.6573 -45.7779 1.00005
      vertex -30.0355 -46.5355 1.00005
    endloop
  endfacet
  facet normal 0 0 1
    outer loop
      vertex -27.3259 -42.7223 1.00005
      vertex -31.1194 -44.9134 1.00005
      vertex -30.6573 -45.7779 1.00005
    endloop
  endfacet
  facet normal 0 0 1
    outer loop
      vertex -27.3259 -42.7223 1.00005
      vertex -31.4039 -43.9755 1.00005
      vertex -31.1194 -44.9134 1.00005
    endloop
  endfacet
  facet normal 0.829278 -0.0817164 -0.552829
    outer loop
      vertex 31.4039 -43.9755 0.50005
      vertex 30.4231 -43.7804 -1.00005
      vertex 30.5 -43 -1.00005
    endloop
  endfacet
  facet normal -0.241891 -0.797413 -0.552831
    outer loop
      vertex -27.2804 -46.9231 -1.00005
      vertex -28.4134 -47.6194 0.50005
      vertex -28.0307 -46.6955 -1.00005
    endloop
  endfacet
  facet normal -0.995183 0.098039 0
    outer loop
      vertex -31.5 43 0.50005
      vertex -31.4039 43.9755 1.00005
      vertex -31.4039 43.9755 0.50005
    endloop
  endfacet
  facet normal -0.995183 0.098039 0
    outer loop
      vertex -31.4039 43.9755 1.00005
      vertex -31.5 43 0.50005
      vertex -31.5 43 1.00005
    endloop
  endfacet
  facet normal 0.290276 -0.956943 0
    outer loop
      vertex 27.4755 -47.9039 0.50005
      vertex 28.4134 -47.6194 1.00005
      vertex 27.4755 -47.9039 1.00005
    endloop
  endfacet
  facet normal 0.290276 -0.956943 0
    outer loop
      vertex 28.4134 -47.6194 1.00005
      vertex 27.4755 -47.9039 0.50005
      vertex 28.4134 -47.6194 0.50005
    endloop
  endfacet
  facet normal 0.797413 0.241891 -0.552831
    outer loop
      vertex 30.4231 43.7804 -1.00005
      vertex 30.1955 44.5307 -1.00005
      vertex 31.1194 44.9134 0.50005
    endloop
  endfacet
  facet normal 0 1 -0
    outer loop
      vertex 26.5 48 0.50005
      vertex -26.5 48 1.00005
      vertex 26.5 48 1.00005
    endloop
  endfacet
  facet normal 0 1 0
    outer loop
      vertex -26.5 48 1.00005
      vertex 26.5 48 0.50005
      vertex -26.5 48 0.50005
    endloop
  endfacet
  facet normal 0.241886 0.797416 -0.552828
    outer loop
      vertex 28.4134 47.6194 0.50005
      vertex 27.2804 46.9231 -1.00005
      vertex 27.4755 47.9039 0.50005
    endloop
  endfacet
  facet normal 0.956943 -0.290276 0
    outer loop
      vertex 31.1194 -44.9134 1.00005
      vertex 31.4039 -43.9755 0.50005
      vertex 31.4039 -43.9755 1.00005
    endloop
  endfacet
  facet normal 0.956943 -0.290276 0
    outer loop
      vertex 31.4039 -43.9755 0.50005
      vertex 31.1194 -44.9134 1.00005
      vertex 31.1194 -44.9134 0.50005
    endloop
  endfacet
  facet normal 0.881915 0.471409 0
    outer loop
      vertex 31.1194 44.9134 1.00005
      vertex 30.6573 45.7779 0.50005
      vertex 30.6573 45.7779 1.00005
    endloop
  endfacet
  facet normal 0.881915 0.471409 0
    outer loop
      vertex 30.6573 45.7779 0.50005
      vertex 31.1194 44.9134 1.00005
      vertex 31.1194 44.9134 0.50005
    endloop
  endfacet
  facet normal 0.098039 -0.995183 0
    outer loop
      vertex 26.5 -48 0.50005
      vertex 27.4755 -47.9039 1.00005
      vertex 26.5 -48 1.00005
    endloop
  endfacet
  facet normal 0.098039 -0.995183 0
    outer loop
      vertex 27.4755 -47.9039 1.00005
      vertex 26.5 -48 0.50005
      vertex 27.4755 -47.9039 0.50005
    endloop
  endfacet
  facet normal -0.832067 0 -0.554675
    outer loop
      vertex -30.5 -43 -1.00005
      vertex -31.5 43 0.50005
      vertex -30.5 43 -1.00005
    endloop
  endfacet
  facet normal -0.832067 -0 -0.554675
    outer loop
      vertex -31.5 43 0.50005
      vertex -30.5 -43 -1.00005
      vertex -31.5 -43 0.50005
    endloop
  endfacet
  facet normal 0.772984 0.634426 0
    outer loop
      vertex 30.6573 45.7779 1.00005
      vertex 30.0355 46.5355 0.50005
      vertex 30.0355 46.5355 1.00005
    endloop
  endfacet
  facet normal 0.772984 0.634426 0
    outer loop
      vertex 30.0355 46.5355 0.50005
      vertex 30.6573 45.7779 1.00005
      vertex 30.6573 45.7779 0.50005
    endloop
  endfacet
  facet normal 0.73491 -0.39283 -0.552804
    outer loop
      vertex 30.6573 -45.7779 0.50005
      vertex 29.8259 -45.2223 -1.00005
      vertex 31.1194 -44.9134 0.50005
    endloop
  endfacet
  facet normal 0.829286 0.0816959 -0.55282
    outer loop
      vertex 31.5 43 0.50005
      vertex 30.5 43 -1.00005
      vertex 31.4039 43.9755 0.50005
    endloop
  endfacet
  facet normal -0.772984 0.634426 0
    outer loop
      vertex -30.6573 45.7779 0.50005
      vertex -30.0355 46.5355 1.00005
      vertex -30.0355 46.5355 0.50005
    endloop
  endfacet
  facet normal -0.772984 0.634426 0
    outer loop
      vertex -30.0355 46.5355 1.00005
      vertex -30.6573 45.7779 0.50005
      vertex -30.6573 45.7779 1.00005
    endloop
  endfacet
  facet normal 0.392755 0.734927 -0.552834
    outer loop
      vertex 28.7223 46.3259 -1.00005
      vertex 28.0307 46.6955 -1.00005
      vertex 28.4134 47.6194 0.50005
    endloop
  endfacet
  facet normal 0.734927 -0.392755 -0.552834
    outer loop
      vertex 31.1194 -44.9134 0.50005
      vertex 29.8259 -45.2223 -1.00005
      vertex 30.1955 -44.5307 -1.00005
    endloop
  endfacet
  facet normal 0.734927 0.392755 -0.552834
    outer loop
      vertex 30.1955 44.5307 -1.00005
      vertex 29.8259 45.2223 -1.00005
      vertex 31.1194 44.9134 0.50005
    endloop
  endfacet
  facet normal -0.098039 0.995183 0
    outer loop
      vertex -26.5 48 0.50005
      vertex -27.4755 47.9039 1.00005
      vertex -26.5 48 1.00005
    endloop
  endfacet
  facet normal -0.098039 0.995183 0
    outer loop
      vertex -27.4755 47.9039 1.00005
      vertex -26.5 48 0.50005
      vertex -27.4755 47.9039 0.50005
    endloop
  endfacet
  facet normal 0 -1 0
    outer loop
      vertex -26.5 -48 0.50005
      vertex 26.5 -48 1.00005
      vertex -26.5 -48 1.00005
    endloop
  endfacet
  facet normal 0 -1 -0
    outer loop
      vertex 26.5 -48 1.00005
      vertex -26.5 -48 0.50005
      vertex 26.5 -48 0.50005
    endloop
  endfacet
  facet normal 0.797413 -0.241891 -0.552831
    outer loop
      vertex 31.1194 -44.9134 0.50005
      vertex 30.1955 -44.5307 -1.00005
      vertex 30.4231 -43.7804 -1.00005
    endloop
  endfacet
  facet normal -0.290276 0.956943 0
    outer loop
      vertex -27.4755 47.9039 0.50005
      vertex -28.4134 47.6194 1.00005
      vertex -27.4755 47.9039 1.00005
    endloop
  endfacet
  facet normal -0.290276 0.956943 0
    outer loop
      vertex -28.4134 47.6194 1.00005
      vertex -27.4755 47.9039 0.50005
      vertex -28.4134 47.6194 0.50005
    endloop
  endfacet
  facet normal -0.644105 -0.528695 -0.552821
    outer loop
      vertex -29.3284 -45.8284 -1.00005
      vertex -30.0355 -46.5355 0.50005
      vertex -29.8259 -45.2223 -1.00005
    endloop
  endfacet
  facet normal 0.39283 0.73491 -0.552804
    outer loop
      vertex 28.7223 46.3259 -1.00005
      vertex 28.4134 47.6194 0.50005
      vertex 29.2779 47.1573 0.50005
    endloop
  endfacet
  facet normal -0.644135 -0.528673 -0.552806
    outer loop
      vertex -30.0355 -46.5355 0.50005
      vertex -30.6573 -45.7779 0.50005
      vertex -29.8259 -45.2223 -1.00005
    endloop
  endfacet
  facet normal 0 0.832067 -0.554675
    outer loop
      vertex 26.5 47 -1.00005
      vertex -26.5 48 0.50005
      vertex 26.5 48 0.50005
    endloop
  endfacet
  facet normal 0 0.832067 -0.554675
    outer loop
      vertex -26.5 48 0.50005
      vertex 26.5 47 -1.00005
      vertex -26.5 47 -1.00005
    endloop
  endfacet
  facet normal 0.241886 -0.797416 -0.552828
    outer loop
      vertex 27.4755 -47.9039 0.50005
      vertex 27.2804 -46.9231 -1.00005
      vertex 28.4134 -47.6194 0.50005
    endloop
  endfacet
  facet normal -1 0 0
    outer loop
      vertex -31.5 -43 0.50005
      vertex -31.5 43 1.00005
      vertex -31.5 43 0.50005
    endloop
  endfacet
  facet normal -1 -0 0
    outer loop
      vertex -31.5 43 1.00005
      vertex -31.5 -43 0.50005
      vertex -31.5 -43 1.00005
    endloop
  endfacet
  facet normal 0.829278 0.0817164 -0.552829
    outer loop
      vertex 30.5 43 -1.00005
      vertex 30.4231 43.7804 -1.00005
      vertex 31.4039 43.9755 0.50005
    endloop
  endfacet
  facet normal 0.797416 0.241886 -0.552828
    outer loop
      vertex 31.4039 43.9755 0.50005
      vertex 30.4231 43.7804 -1.00005
      vertex 31.1194 44.9134 0.50005
    endloop
  endfacet
  facet normal 1 -0 0
    outer loop
      vertex 31.5 -43 1.00005
      vertex 31.5 43 0.50005
      vertex 31.5 43 1.00005
    endloop
  endfacet
  facet normal 1 0 0
    outer loop
      vertex 31.5 43 0.50005
      vertex 31.5 -43 1.00005
      vertex 31.5 -43 0.50005
    endloop
  endfacet
  facet normal -0.392755 -0.734927 -0.552834
    outer loop
      vertex -28.4134 -47.6194 0.50005
      vertex -28.7223 -46.3259 -1.00005
      vertex -28.0307 -46.6955 -1.00005
    endloop
  endfacet
  facet normal 0.644105 0.528695 -0.552821
    outer loop
      vertex 29.8259 45.2223 -1.00005
      vertex 29.3284 45.8284 -1.00005
      vertex 30.0355 46.5355 0.50005
    endloop
  endfacet
  facet normal -0.39283 0.73491 -0.552804
    outer loop
      vertex -28.7223 46.3259 -1.00005
      vertex -29.2779 47.1573 0.50005
      vertex -28.4134 47.6194 0.50005
    endloop
  endfacet
  facet normal -0.956943 -0.290276 0
    outer loop
      vertex -31.1194 -44.9134 0.50005
      vertex -31.4039 -43.9755 1.00005
      vertex -31.4039 -43.9755 0.50005
    endloop
  endfacet
  facet normal -0.956943 -0.290276 0
    outer loop
      vertex -31.4039 -43.9755 1.00005
      vertex -31.1194 -44.9134 0.50005
      vertex -31.1194 -44.9134 1.00005
    endloop
  endfacet
  facet normal 0.528695 -0.644105 -0.552821
    outer loop
      vertex 30.0355 -46.5355 0.50005
      vertex 28.7223 -46.3259 -1.00005
      vertex 29.3284 -45.8284 -1.00005
    endloop
  endfacet
  facet normal 0.471409 0.881915 -0
    outer loop
      vertex 29.2779 47.1573 0.50005
      vertex 28.4134 47.6194 1.00005
      vertex 29.2779 47.1573 1.00005
    endloop
  endfacet
  facet normal 0.471409 0.881915 0
    outer loop
      vertex 28.4134 47.6194 1.00005
      vertex 29.2779 47.1573 0.50005
      vertex 28.4134 47.6194 0.50005
    endloop
  endfacet
  facet normal -0.0816959 0.829286 -0.55282
    outer loop
      vertex -26.5 47 -1.00005
      vertex -27.4755 47.9039 0.50005
      vertex -26.5 48 0.50005
    endloop
  endfacet
  facet normal -0.290276 -0.956943 0
    outer loop
      vertex -28.4134 -47.6194 0.50005
      vertex -27.4755 -47.9039 1.00005
      vertex -28.4134 -47.6194 1.00005
    endloop
  endfacet
  facet normal -0.290276 -0.956943 -0
    outer loop
      vertex -27.4755 -47.9039 1.00005
      vertex -28.4134 -47.6194 0.50005
      vertex -27.4755 -47.9039 0.50005
    endloop
  endfacet
  facet normal 0 -0.832067 -0.554675
    outer loop
      vertex -26.5 -47 -1.00005
      vertex 26.5 -48 0.50005
      vertex -26.5 -48 0.50005
    endloop
  endfacet
  facet normal 0 -0.832067 -0.554675
    outer loop
      vertex 26.5 -48 0.50005
      vertex -26.5 -47 -1.00005
      vertex 26.5 -47 -1.00005
    endloop
  endfacet
  facet normal -0.772984 -0.634426 0
    outer loop
      vertex -30.0355 -46.5355 0.50005
      vertex -30.6573 -45.7779 1.00005
      vertex -30.6573 -45.7779 0.50005
    endloop
  endfacet
  facet normal -0.772984 -0.634426 0
    outer loop
      vertex -30.6573 -45.7779 1.00005
      vertex -30.0355 -46.5355 0.50005
      vertex -30.0355 -46.5355 1.00005
    endloop
  endfacet
  facet normal -0.881915 -0.471409 0
    outer loop
      vertex -30.6573 -45.7779 0.50005
      vertex -31.1194 -44.9134 1.00005
      vertex -31.1194 -44.9134 0.50005
    endloop
  endfacet
  facet normal -0.881915 -0.471409 0
    outer loop
      vertex -31.1194 -44.9134 1.00005
      vertex -30.6573 -45.7779 0.50005
      vertex -30.6573 -45.7779 1.00005
    endloop
  endfacet
  facet normal 0.528673 0.644135 -0.552806
    outer loop
      vertex 30.0355 46.5355 0.50005
      vertex 28.7223 46.3259 -1.00005
      vertex 29.2779 47.1573 0.50005
    endloop
  endfacet
  facet normal 0.528673 -0.644135 -0.552806
    outer loop
      vertex 29.2779 -47.1573 0.50005
      vertex 28.7223 -46.3259 -1.00005
      vertex 30.0355 -46.5355 0.50005
    endloop
  endfacet
  facet normal 0.995183 0.098039 0
    outer loop
      vertex 31.5 43 1.00005
      vertex 31.4039 43.9755 0.50005
      vertex 31.4039 43.9755 1.00005
    endloop
  endfacet
  facet normal 0.995183 0.098039 0
    outer loop
      vertex 31.4039 43.9755 0.50005
      vertex 31.5 43 1.00005
      vertex 31.5 43 0.50005
    endloop
  endfacet
  facet normal 0.956943 0.290276 0
    outer loop
      vertex 31.4039 43.9755 1.00005
      vertex 31.1194 44.9134 0.50005
      vertex 31.1194 44.9134 1.00005
    endloop
  endfacet
  facet normal 0.956943 0.290276 0
    outer loop
      vertex 31.1194 44.9134 0.50005
      vertex 31.4039 43.9755 1.00005
      vertex 31.4039 43.9755 0.50005
    endloop
  endfacet
  facet normal 0.528695 0.644105 -0.552821
    outer loop
      vertex 29.3284 45.8284 -1.00005
      vertex 28.7223 46.3259 -1.00005
      vertex 30.0355 46.5355 0.50005
    endloop
  endfacet
  facet normal 0.0817164 -0.829278 -0.552829
    outer loop
      vertex 27.4755 -47.9039 0.50005
      vertex 26.5 -47 -1.00005
      vertex 27.2804 -46.9231 -1.00005
    endloop
  endfacet
  facet normal 0.0817164 0.829278 -0.552829
    outer loop
      vertex 27.2804 46.9231 -1.00005
      vertex 26.5 47 -1.00005
      vertex 27.4755 47.9039 0.50005
    endloop
  endfacet
  facet normal 0.0816959 0.829286 -0.55282
    outer loop
      vertex 27.4755 47.9039 0.50005
      vertex 26.5 47 -1.00005
      vertex 26.5 48 0.50005
    endloop
  endfacet
  facet normal 0.995183 -0.098039 0
    outer loop
      vertex 31.4039 -43.9755 1.00005
      vertex 31.5 -43 0.50005
      vertex 31.5 -43 1.00005
    endloop
  endfacet
  facet normal 0.995183 -0.098039 0
    outer loop
      vertex 31.5 -43 0.50005
      vertex 31.4039 -43.9755 1.00005
      vertex 31.4039 -43.9755 0.50005
    endloop
  endfacet
  facet normal 0.634426 -0.772984 0
    outer loop
      vertex 29.2779 -47.1573 0.50005
      vertex 30.0355 -46.5355 1.00005
      vertex 29.2779 -47.1573 1.00005
    endloop
  endfacet
  facet normal 0.634426 -0.772984 0
    outer loop
      vertex 30.0355 -46.5355 1.00005
      vertex 29.2779 -47.1573 0.50005
      vertex 30.0355 -46.5355 0.50005
    endloop
  endfacet
  facet normal -0.098039 -0.995183 0
    outer loop
      vertex -27.4755 -47.9039 0.50005
      vertex -26.5 -48 1.00005
      vertex -27.4755 -47.9039 1.00005
    endloop
  endfacet
  facet normal -0.098039 -0.995183 -0
    outer loop
      vertex -26.5 -48 1.00005
      vertex -27.4755 -47.9039 0.50005
      vertex -26.5 -48 0.50005
    endloop
  endfacet
  facet normal 0.881915 -0.471409 0
    outer loop
      vertex 30.6573 -45.7779 1.00005
      vertex 31.1194 -44.9134 0.50005
      vertex 31.1194 -44.9134 1.00005
    endloop
  endfacet
  facet normal 0.881915 -0.471409 0
    outer loop
      vertex 31.1194 -44.9134 0.50005
      vertex 30.6573 -45.7779 1.00005
      vertex 30.6573 -45.7779 0.50005
    endloop
  endfacet
  facet normal 0.290276 0.956943 -0
    outer loop
      vertex 28.4134 47.6194 0.50005
      vertex 27.4755 47.9039 1.00005
      vertex 28.4134 47.6194 1.00005
    endloop
  endfacet
  facet normal 0.290276 0.956943 0
    outer loop
      vertex 27.4755 47.9039 1.00005
      vertex 28.4134 47.6194 0.50005
      vertex 27.4755 47.9039 0.50005
    endloop
  endfacet
  facet normal -0.0817164 0.829278 -0.552829
    outer loop
      vertex -27.2804 46.9231 -1.00005
      vertex -27.4755 47.9039 0.50005
      vertex -26.5 47 -1.00005
    endloop
  endfacet
  facet normal 0.241891 -0.797413 -0.552831
    outer loop
      vertex 28.4134 -47.6194 0.50005
      vertex 27.2804 -46.9231 -1.00005
      vertex 28.0307 -46.6955 -1.00005
    endloop
  endfacet
  facet normal -0.528673 -0.644135 -0.552806
    outer loop
      vertex -29.2779 -47.1573 0.50005
      vertex -30.0355 -46.5355 0.50005
      vertex -28.7223 -46.3259 -1.00005
    endloop
  endfacet
  facet normal -0.471409 -0.881915 0
    outer loop
      vertex -29.2779 -47.1573 0.50005
      vertex -28.4134 -47.6194 1.00005
      vertex -29.2779 -47.1573 1.00005
    endloop
  endfacet
  facet normal -0.471409 -0.881915 -0
    outer loop
      vertex -28.4134 -47.6194 1.00005
      vertex -29.2779 -47.1573 0.50005
      vertex -28.4134 -47.6194 0.50005
    endloop
  endfacet
  facet normal 0.241891 0.797413 -0.552831
    outer loop
      vertex 28.0307 46.6955 -1.00005
      vertex 27.2804 46.9231 -1.00005
      vertex 28.4134 47.6194 0.50005
    endloop
  endfacet
  facet normal -0.644105 0.528695 -0.552821
    outer loop
      vertex -29.8259 45.2223 -1.00005
      vertex -30.0355 46.5355 0.50005
      vertex -29.3284 45.8284 -1.00005
    endloop
  endfacet
  facet normal -0.528695 -0.644105 -0.552821
    outer loop
      vertex -28.7223 -46.3259 -1.00005
      vertex -30.0355 -46.5355 0.50005
      vertex -29.3284 -45.8284 -1.00005
    endloop
  endfacet
  facet normal -0.797413 -0.241891 -0.552831
    outer loop
      vertex -30.1955 -44.5307 -1.00005
      vertex -31.1194 -44.9134 0.50005
      vertex -30.4231 -43.7804 -1.00005
    endloop
  endfacet
  facet normal 0.644105 -0.528695 -0.552821
    outer loop
      vertex 30.0355 -46.5355 0.50005
      vertex 29.3284 -45.8284 -1.00005
      vertex 29.8259 -45.2223 -1.00005
    endloop
  endfacet
  facet normal 0.098039 0.995183 -0
    outer loop
      vertex 27.4755 47.9039 0.50005
      vertex 26.5 48 1.00005
      vertex 27.4755 47.9039 1.00005
    endloop
  endfacet
  facet normal 0.098039 0.995183 0
    outer loop
      vertex 26.5 48 1.00005
      vertex 27.4755 47.9039 0.50005
      vertex 26.5 48 0.50005
    endloop
  endfacet
  facet normal -0.734927 -0.392755 -0.552834
    outer loop
      vertex -29.8259 -45.2223 -1.00005
      vertex -31.1194 -44.9134 0.50005
      vertex -30.1955 -44.5307 -1.00005
    endloop
  endfacet
  facet normal -0.734927 0.392755 -0.552834
    outer loop
      vertex -30.1955 44.5307 -1.00005
      vertex -31.1194 44.9134 0.50005
      vertex -29.8259 45.2223 -1.00005
    endloop
  endfacet
  facet normal -0.829278 0.0817164 -0.552829
    outer loop
      vertex -30.5 43 -1.00005
      vertex -31.4039 43.9755 0.50005
      vertex -30.4231 43.7804 -1.00005
    endloop
  endfacet
  facet normal -0.634426 0.772984 0
    outer loop
      vertex -29.2779 47.1573 0.50005
      vertex -30.0355 46.5355 1.00005
      vertex -29.2779 47.1573 1.00005
    endloop
  endfacet
  facet normal -0.634426 0.772984 0
    outer loop
      vertex -30.0355 46.5355 1.00005
      vertex -29.2779 47.1573 0.50005
      vertex -30.0355 46.5355 0.50005
    endloop
  endfacet
  facet normal 0.644135 -0.528673 -0.552806
    outer loop
      vertex 30.0355 -46.5355 0.50005
      vertex 29.8259 -45.2223 -1.00005
      vertex 30.6573 -45.7779 0.50005
    endloop
  endfacet
  facet normal -0.829278 -0.0817164 -0.552829
    outer loop
      vertex -30.4231 -43.7804 -1.00005
      vertex -31.4039 -43.9755 0.50005
      vertex -30.5 -43 -1.00005
    endloop
  endfacet
  facet normal -0.0816959 -0.829286 -0.55282
    outer loop
      vertex -26.5 -48 0.50005
      vertex -27.4755 -47.9039 0.50005
      vertex -26.5 -47 -1.00005
    endloop
  endfacet
  facet normal 0.392755 -0.734927 -0.552834
    outer loop
      vertex 28.4134 -47.6194 0.50005
      vertex 28.0307 -46.6955 -1.00005
      vertex 28.7223 -46.3259 -1.00005
    endloop
  endfacet
  facet normal -0.39283 -0.73491 -0.552804
    outer loop
      vertex -28.4134 -47.6194 0.50005
      vertex -29.2779 -47.1573 0.50005
      vertex -28.7223 -46.3259 -1.00005
    endloop
  endfacet
  facet normal -0.528673 0.644135 -0.552806
    outer loop
      vertex -28.7223 46.3259 -1.00005
      vertex -30.0355 46.5355 0.50005
      vertex -29.2779 47.1573 0.50005
    endloop
  endfacet
  facet normal -0.392755 0.734927 -0.552834
    outer loop
      vertex -28.0307 46.6955 -1.00005
      vertex -28.7223 46.3259 -1.00005
      vertex -28.4134 47.6194 0.50005
    endloop
  endfacet
  facet normal -0.956943 0.290276 0
    outer loop
      vertex -31.4039 43.9755 0.50005
      vertex -31.1194 44.9134 1.00005
      vertex -31.1194 44.9134 0.50005
    endloop
  endfacet
  facet normal -0.956943 0.290276 0
    outer loop
      vertex -31.1194 44.9134 1.00005
      vertex -31.4039 43.9755 0.50005
      vertex -31.4039 43.9755 1.00005
    endloop
  endfacet
  facet normal -0.797416 -0.241886 -0.552828
    outer loop
      vertex -31.1194 -44.9134 0.50005
      vertex -31.4039 -43.9755 0.50005
      vertex -30.4231 -43.7804 -1.00005
    endloop
  endfacet
  facet normal 0.829286 -0.0816959 -0.55282
    outer loop
      vertex 31.4039 -43.9755 0.50005
      vertex 30.5 -43 -1.00005
      vertex 31.5 -43 0.50005
    endloop
  endfacet
  facet normal -0.829286 0.0816959 -0.55282
    outer loop
      vertex -30.5 43 -1.00005
      vertex -31.5 43 0.50005
      vertex -31.4039 43.9755 0.50005
    endloop
  endfacet
  facet normal -0.797413 0.241891 -0.552831
    outer loop
      vertex -30.4231 43.7804 -1.00005
      vertex -31.1194 44.9134 0.50005
      vertex -30.1955 44.5307 -1.00005
    endloop
  endfacet
  facet normal -0.471409 0.881915 0
    outer loop
      vertex -28.4134 47.6194 0.50005
      vertex -29.2779 47.1573 1.00005
      vertex -28.4134 47.6194 1.00005
    endloop
  endfacet
  facet normal -0.471409 0.881915 0
    outer loop
      vertex -29.2779 47.1573 1.00005
      vertex -28.4134 47.6194 0.50005
      vertex -29.2779 47.1573 0.50005
    endloop
  endfacet
  facet normal 0.0816959 -0.829286 -0.55282
    outer loop
      vertex 27.4755 -47.9039 0.50005
      vertex 26.5 -48 0.50005
      vertex 26.5 -47 -1.00005
    endloop
  endfacet
  facet normal -0.634426 -0.772984 0
    outer loop
      vertex -30.0355 -46.5355 0.50005
      vertex -29.2779 -47.1573 1.00005
      vertex -30.0355 -46.5355 1.00005
    endloop
  endfacet
  facet normal -0.634426 -0.772984 -0
    outer loop
      vertex -29.2779 -47.1573 1.00005
      vertex -30.0355 -46.5355 0.50005
      vertex -29.2779 -47.1573 0.50005
    endloop
  endfacet
  facet normal -0.73491 -0.39283 -0.552804
    outer loop
      vertex -30.6573 -45.7779 0.50005
      vertex -31.1194 -44.9134 0.50005
      vertex -29.8259 -45.2223 -1.00005
    endloop
  endfacet
  facet normal 0 0 -1
    outer loop
      vertex 26.5 -47 -1.00005
      vertex 30.5 -43 -1.00005
      vertex 30.4231 -43.7804 -1.00005
    endloop
  endfacet
  facet normal 0 0 -1
    outer loop
      vertex 30.5 -43 -1.00005
      vertex 18.5 -36.25 -1.00005
      vertex 30.5 43 -1.00005
    endloop
  endfacet
  facet normal 0 0 -1
    outer loop
      vertex 26.5 -47 -1.00005
      vertex 30.4231 -43.7804 -1.00005
      vertex 30.1955 -44.5307 -1.00005
    endloop
  endfacet
  facet normal 0 0 -1
    outer loop
      vertex -30.5 43 -1.00005
      vertex 30.5 43 -1.00005
      vertex 18.5 -36.25 -1.00005
    endloop
  endfacet
  facet normal 0 0 -1
    outer loop
      vertex 26.5 -47 -1.00005
      vertex 30.1955 -44.5307 -1.00005
      vertex 29.8259 -45.2223 -1.00005
    endloop
  endfacet
  facet normal 0 -0 -1
    outer loop
      vertex 26.5 47 -1.00005
      vertex 30.5 43 -1.00005
      vertex -30.5 43 -1.00005
    endloop
  endfacet
  facet normal 0 0 -1
    outer loop
      vertex 26.5 -47 -1.00005
      vertex 29.8259 -45.2223 -1.00005
      vertex 29.3284 -45.8284 -1.00005
    endloop
  endfacet
  facet normal 0 0 -1
    outer loop
      vertex 30.4231 43.7804 -1.00005
      vertex 26.5 47 -1.00005
      vertex 30.1955 44.5307 -1.00005
    endloop
  endfacet
  facet normal 0 0 -1
    outer loop
      vertex 26.5 -47 -1.00005
      vertex 29.3284 -45.8284 -1.00005
      vertex 28.7223 -46.3259 -1.00005
    endloop
  endfacet
  facet normal 0 0 -1
    outer loop
      vertex 30.1955 44.5307 -1.00005
      vertex 26.5 47 -1.00005
      vertex 29.8259 45.2223 -1.00005
    endloop
  endfacet
  facet normal 0 0 -1
    outer loop
      vertex 26.5 -47 -1.00005
      vertex 28.7223 -46.3259 -1.00005
      vertex 28.0307 -46.6955 -1.00005
    endloop
  endfacet
  facet normal 0 0 -1
    outer loop
      vertex 29.8259 45.2223 -1.00005
      vertex 26.5 47 -1.00005
      vertex 29.3284 45.8284 -1.00005
    endloop
  endfacet
  facet normal 0 0 -1
    outer loop
      vertex 26.5 -47 -1.00005
      vertex 28.0307 -46.6955 -1.00005
      vertex 27.2804 -46.9231 -1.00005
    endloop
  endfacet
  facet normal 0 0 -1
    outer loop
      vertex 29.3284 45.8284 -1.00005
      vertex 26.5 47 -1.00005
      vertex 28.7223 46.3259 -1.00005
    endloop
  endfacet
  facet normal 0 0 -1
    outer loop
      vertex 30.5 -43 -1.00005
      vertex 26.5 -47 -1.00005
      vertex 18.5 -44.25 -1.00005
    endloop
  endfacet
  facet normal 0 0 -1
    outer loop
      vertex 28.7223 46.3259 -1.00005
      vertex 26.5 47 -1.00005
      vertex 28.0307 46.6955 -1.00005
    endloop
  endfacet
  facet normal -0 0 -1
    outer loop
      vertex 30.5 -43 -1.00005
      vertex 18.5 -44.25 -1.00005
      vertex 18.5 -36.25 -1.00005
    endloop
  endfacet
  facet normal 0 0 -1
    outer loop
      vertex 26.5 -47 -1.00005
      vertex -18.5 -44.25 -1.00005
      vertex 18.5 -44.25 -1.00005
    endloop
  endfacet
  facet normal 0 0 -1
    outer loop
      vertex -30.5 -43 -1.00005
      vertex -18.5 -44.25 -1.00005
      vertex -26.5 -47 -1.00005
    endloop
  endfacet
  facet normal 0 0 -1
    outer loop
      vertex -26.5 -47 -1.00005
      vertex -18.5 -44.25 -1.00005
      vertex 26.5 -47 -1.00005
    endloop
  endfacet
  facet normal 0 0 -1
    outer loop
      vertex 28.0307 46.6955 -1.00005
      vertex 26.5 47 -1.00005
      vertex 27.2804 46.9231 -1.00005
    endloop
  endfacet
  facet normal 0 0 -1
    outer loop
      vertex -30.5 43 -1.00005
      vertex 18.5 -36.25 -1.00005
      vertex -18.5 -36.25 -1.00005
    endloop
  endfacet
  facet normal 0 0 -1
    outer loop
      vertex -18.5 -44.25 -1.00005
      vertex -30.5 -43 -1.00005
      vertex -18.5 -36.25 -1.00005
    endloop
  endfacet
  facet normal 0 0 -1
    outer loop
      vertex -30.5 43 -1.00005
      vertex -18.5 -36.25 -1.00005
      vertex -30.5 -43 -1.00005
    endloop
  endfacet
  facet normal 0 0 -1
    outer loop
      vertex -30.5 -43 -1.00005
      vertex -26.5 -47 -1.00005
      vertex -27.2804 -46.9231 -1.00005
    endloop
  endfacet
  facet normal 0 0 -1
    outer loop
      vertex 30.5 43 -1.00005
      vertex 26.5 47 -1.00005
      vertex 30.4231 43.7804 -1.00005
    endloop
  endfacet
  facet normal 0 0 -1
    outer loop
      vertex -30.5 -43 -1.00005
      vertex -27.2804 -46.9231 -1.00005
      vertex -28.0307 -46.6955 -1.00005
    endloop
  endfacet
  facet normal -0 0 -1
    outer loop
      vertex 26.5 47 -1.00005
      vertex -30.5 43 -1.00005
      vertex -26.5 47 -1.00005
    endloop
  endfacet
  facet normal 0 0 -1
    outer loop
      vertex -30.5 -43 -1.00005
      vertex -28.0307 -46.6955 -1.00005
      vertex -28.7223 -46.3259 -1.00005
    endloop
  endfacet
  facet normal 0 0 -1
    outer loop
      vertex -26.5 47 -1.00005
      vertex -30.5 43 -1.00005
      vertex -27.2804 46.9231 -1.00005
    endloop
  endfacet
  facet normal 0 0 -1
    outer loop
      vertex -30.5 -43 -1.00005
      vertex -28.7223 -46.3259 -1.00005
      vertex -29.3284 -45.8284 -1.00005
    endloop
  endfacet
  facet normal 0 0 -1
    outer loop
      vertex -27.2804 46.9231 -1.00005
      vertex -30.5 43 -1.00005
      vertex -28.0307 46.6955 -1.00005
    endloop
  endfacet
  facet normal 0 0 -1
    outer loop
      vertex -30.5 -43 -1.00005
      vertex -29.3284 -45.8284 -1.00005
      vertex -29.8259 -45.2223 -1.00005
    endloop
  endfacet
  facet normal 0 0 -1
    outer loop
      vertex -28.0307 46.6955 -1.00005
      vertex -30.5 43 -1.00005
      vertex -28.7223 46.3259 -1.00005
    endloop
  endfacet
  facet normal 0 0 -1
    outer loop
      vertex -30.5 -43 -1.00005
      vertex -29.8259 -45.2223 -1.00005
      vertex -30.1955 -44.5307 -1.00005
    endloop
  endfacet
  facet normal 0 0 -1
    outer loop
      vertex -28.7223 46.3259 -1.00005
      vertex -30.5 43 -1.00005
      vertex -29.3284 45.8284 -1.00005
    endloop
  endfacet
  facet normal 0 0 -1
    outer loop
      vertex -30.5 -43 -1.00005
      vertex -30.1955 -44.5307 -1.00005
      vertex -30.4231 -43.7804 -1.00005
    endloop
  endfacet
  facet normal 0 0 -1
    outer loop
      vertex -29.3284 45.8284 -1.00005
      vertex -30.5 43 -1.00005
      vertex -29.8259 45.2223 -1.00005
    endloop
  endfacet
  facet normal 0 0 -1
    outer loop
      vertex -29.8259 45.2223 -1.00005
      vertex -30.5 43 -1.00005
      vertex -30.1955 44.5307 -1.00005
    endloop
  endfacet
  facet normal 0 0 -1
    outer loop
      vertex -30.1955 44.5307 -1.00005
      vertex -30.5 43 -1.00005
      vertex -30.4231 43.7804 -1.00005
    endloop
  endfacet
  facet normal -0.528695 0.644105 -0.552821
    outer loop
      vertex -29.3284 45.8284 -1.00005
      vertex -30.0355 46.5355 0.50005
      vertex -28.7223 46.3259 -1.00005
    endloop
  endfacet
  facet normal -0.644135 0.528673 -0.552806
    outer loop
      vertex -29.8259 45.2223 -1.00005
      vertex -30.6573 45.7779 0.50005
      vertex -30.0355 46.5355 0.50005
    endloop
  endfacet
  facet normal -0.241886 0.797416 -0.552828
    outer loop
      vertex -27.2804 46.9231 -1.00005
      vertex -28.4134 47.6194 0.50005
      vertex -27.4755 47.9039 0.50005
    endloop
  endfacet
  facet normal -0.241886 -0.797416 -0.552828
    outer loop
      vertex -27.4755 -47.9039 0.50005
      vertex -28.4134 -47.6194 0.50005
      vertex -27.2804 -46.9231 -1.00005
    endloop
  endfacet
  facet normal -0.0817164 -0.829278 -0.552829
    outer loop
      vertex -26.5 -47 -1.00005
      vertex -27.4755 -47.9039 0.50005
      vertex -27.2804 -46.9231 -1.00005
    endloop
  endfacet
  facet normal -0.995183 -0.098039 0
    outer loop
      vertex -31.4039 -43.9755 0.50005
      vertex -31.5 -43 1.00005
      vertex -31.5 -43 0.50005
    endloop
  endfacet
  facet normal -0.995183 -0.098039 0
    outer loop
      vertex -31.5 -43 1.00005
      vertex -31.4039 -43.9755 0.50005
      vertex -31.4039 -43.9755 1.00005
    endloop
  endfacet
  facet normal -0.829286 -0.0816959 -0.55282
    outer loop
      vertex -31.4039 -43.9755 0.50005
      vertex -31.5 -43 0.50005
      vertex -30.5 -43 -1.00005
    endloop
  endfacet
  facet normal -0.73491 0.39283 -0.552804
    outer loop
      vertex -29.8259 45.2223 -1.00005
      vertex -31.1194 44.9134 0.50005
      vertex -30.6573 45.7779 0.50005
    endloop
  endfacet
  facet normal -0.881915 0.471409 0
    outer loop
      vertex -31.1194 44.9134 0.50005
      vertex -30.6573 45.7779 1.00005
      vertex -30.6573 45.7779 0.50005
    endloop
  endfacet
  facet normal -0.881915 0.471409 0
    outer loop
      vertex -30.6573 45.7779 1.00005
      vertex -31.1194 44.9134 0.50005
      vertex -31.1194 44.9134 1.00005
    endloop
  endfacet
  facet normal 0.39283 -0.73491 -0.552804
    outer loop
      vertex 29.2779 -47.1573 0.50005
      vertex 28.4134 -47.6194 0.50005
      vertex 28.7223 -46.3259 -1.00005
    endloop
  endfacet
  facet normal -0.241891 0.797413 -0.552831
    outer loop
      vertex -28.0307 46.6955 -1.00005
      vertex -28.4134 47.6194 0.50005
      vertex -27.2804 46.9231 -1.00005
    endloop
  endfacet
  facet normal -1 0 0
    outer loop
      vertex 18.5 -44.25 -1.00005
      vertex 18.5 -36.25 1.00005
      vertex 18.5 -36.25 -1.00005
    endloop
  endfacet
  facet normal -1 -0 0
    outer loop
      vertex 18.5 -36.25 1.00005
      vertex 18.5 -44.25 -1.00005
      vertex 18.5 -44.25 1.00005
    endloop
  endfacet
  facet normal 1 -0 0
    outer loop
      vertex -18.5 -44.25 1.00005
      vertex -18.5 -36.25 -1.00005
      vertex -18.5 -36.25 1.00005
    endloop
  endfacet
  facet normal 1 0 0
    outer loop
      vertex -18.5 -36.25 -1.00005
      vertex -18.5 -44.25 1.00005
      vertex -18.5 -44.25 -1.00005
    endloop
  endfacet
  facet normal 0 -1 0
    outer loop
      vertex -18.5 -36.25 -1.00005
      vertex 18.5 -36.25 1.00005
      vertex -18.5 -36.25 1.00005
    endloop
  endfacet
  facet normal 0 -1 -0
    outer loop
      vertex 18.5 -36.25 1.00005
      vertex -18.5 -36.25 -1.00005
      vertex 18.5 -36.25 -1.00005
    endloop
  endfacet
  facet normal 0 1 -0
    outer loop
      vertex 18.5 -44.25 -1.00005
      vertex -18.5 -44.25 1.00005
      vertex 18.5 -44.25 1.00005
    endloop
  endfacet
  facet normal 0 1 0
    outer loop
      vertex -18.5 -44.25 1.00005
      vertex 18.5 -44.25 -1.00005
      vertex -18.5 -44.25 -1.00005
    endloop
  endfacet
endsolid OpenSCAD_Model
